<?xml version="1.0" encoding="utf-8"?>
<!-- Generator: Adobe Illustrator 16.0.0, SVG Export Plug-In . SVG Version: 6.00 Build 0)  -->
<!DOCTYPE svg PUBLIC "-//W3C//DTD SVG 1.1//EN" "http://www.w3.org/Graphics/SVG/1.1/DTD/svg11.dtd">
<svg version="1.1" id="Layer_1" xmlns="http://www.w3.org/2000/svg" xmlns:xlink="http://www.w3.org/1999/xlink" x="0px" y="0px"
	 width="26.162px" height="26.341px" viewBox="0 0 26.162 26.341" enable-background="new 0 0 26.162 26.341" xml:space="preserve">
<g>
	<g>
		<path fill="#A19DC3" d="M13.082,26.341C5.868,26.341,0,20.434,0,13.172C0,5.909,5.868,0,13.082,0
			c7.213,0,13.081,5.909,13.081,13.172C26.162,20.434,20.294,26.341,13.082,26.341z M13.082,0.829
			c-6.756,0-12.252,5.537-12.252,12.343c0,6.804,5.497,12.339,12.252,12.339c6.755,0,12.251-5.536,12.251-12.339
			C25.333,6.366,19.837,0.829,13.082,0.829z"/>
	</g>
	<g>
		<path fill="#A19DC3" d="M13.07,3.848c-0.74,0-1.393,0.648-1.393,1.398l0.007,5.129l-7.397,4.672l0.004,1.863l7.398-2.344
			l0.008,5.129l-1.846,1.402l0.002,1.395l3.24-0.938l3.236,0.93l-0.004-1.397l-1.85-1.396l-0.006-5.129l7.406,2.32l-0.004-1.859
			l-7.406-4.652l-0.008-5.129C14.458,4.497,13.807,3.844,13.07,3.848L13.07,3.848z M13.07,3.848"/>
	</g>
</g>
</svg>
