<?xml version="1.0" encoding="utf-8"?>
<!-- Generator: Adobe Illustrator 16.0.0, SVG Export Plug-In . SVG Version: 6.00 Build 0)  -->
<!DOCTYPE svg PUBLIC "-//W3C//DTD SVG 1.1//EN" "http://www.w3.org/Graphics/SVG/1.1/DTD/svg11.dtd">
<svg version="1.1" id="Layer_1" xmlns="http://www.w3.org/2000/svg" xmlns:xlink="http://www.w3.org/1999/xlink" x="0px" y="0px"
	 width="24.333px" height="24.364px" viewBox="0 0 24.333 24.364" enable-background="new 0 0 24.333 24.364" xml:space="preserve">
<g>
	<path fill="#FFFFFF" d="M24.085,11.42c0,6.582-5.338,11.916-11.922,11.916c-6.582,0-11.916-5.334-11.916-11.916
		c0-6.584,5.334-11.922,11.916-11.922C18.748-0.501,24.085,4.836,24.085,11.42z"/>
	<path fill="#44C8F5" d="M22.957,6.353c-1.904-4.05-6.021-6.854-10.793-6.854S3.277,2.303,1.373,6.353H22.957z"/>
	<path fill="#44C8F5" d="M22.957,16.483H1.373c1.904,4.053,6.02,6.854,10.791,6.854S21.052,20.536,22.957,16.483z"/>
	<g>
		<g>
			<g>
				<polygon fill="#FFCB05" points="11.794,9.917 11.991,6.833 12.193,9.917 				"/>
				<polygon fill="#FFCB05" points="12.349,9.979 13.738,7.219 12.714,10.135 				"/>
				<g>
					<path fill="#FFCB05" d="M12.085,9.774c0.33-0.416,0.211-0.912,0.297-1.355c0.077-0.398,0.518-0.883,0.377-1.326
						c0.271,0.345-0.012,0.879-0.061,1.322c-0.037,0.389,0.049,0.824-0.268,1.436C12.156,10.381,12.085,9.774,12.085,9.774z"/>
					<path fill="#FFCB05" d="M11.902,9.774c-0.33-0.416-0.215-0.912-0.301-1.355c-0.079-0.398-0.514-0.883-0.377-1.326
						c-0.268,0.345,0.015,0.879,0.061,1.322c0.045,0.389-0.046,0.824,0.271,1.436C11.832,10.381,11.902,9.774,11.902,9.774z"/>
				</g>
			</g>
			<g>
				<polygon fill="#FFCB05" points="12.863,10.211 15.185,8.172 13.146,10.5 				"/>
				<polygon fill="#FFCB05" points="13.21,10.651 16.148,9.678 13.358,11.022 				"/>
				<g>
					<path fill="#FFCB05" d="M13.169,10.319c0.524-0.061,0.797-0.496,1.171-0.748c0.336-0.229,0.985-0.262,1.203-0.672
						c-0.054,0.436-0.628,0.615-0.978,0.895c-0.303,0.246-0.551,0.615-1.208,0.826C12.792,10.795,13.169,10.319,13.169,10.319z"/>
					<path fill="#FFCB05" d="M13.042,10.188c0.059-0.521,0.492-0.797,0.744-1.166c0.229-0.342,0.262-0.99,0.673-1.207
						c-0.435,0.053-0.616,0.631-0.896,0.977c-0.246,0.309-0.615,0.551-0.821,1.207C12.562,10.569,13.042,10.188,13.042,10.188z"/>
				</g>
			</g>
			<g>
				<polygon fill="#FFCB05" points="13.407,11.178 16.496,11.379 13.407,11.581 				"/>
				<polygon fill="#FFCB05" points="13.347,11.731 16.106,13.124 13.185,12.103 				"/>
				<g>
					<path fill="#FFCB05" d="M13.556,11.473c0.41,0.324,0.912,0.209,1.351,0.295c0.402,0.078,0.885,0.518,1.327,0.379
						c-0.346,0.271-0.88-0.014-1.322-0.059c-0.387-0.045-0.826,0.045-1.435-0.27C12.949,11.543,13.556,11.473,13.556,11.473z"/>
					<path fill="#FFCB05" d="M13.556,11.288c0.41-0.328,0.912-0.213,1.351-0.295c0.402-0.082,0.885-0.518,1.327-0.377
						c-0.346-0.271-0.88,0.012-1.322,0.057c-0.387,0.041-0.826-0.045-1.435,0.271C12.949,11.219,13.556,11.288,13.556,11.288z"/>
				</g>
			</g>
			<g>
				<polygon fill="#FFCB05" points="13.113,12.249 15.154,14.573 12.83,12.536 				"/>
				<polygon fill="#FFCB05" points="12.676,12.598 13.646,15.534 12.304,12.747 				"/>
				<g>
					<path fill="#FFCB05" d="M13.008,12.557c0.062,0.525,0.495,0.797,0.743,1.171c0.232,0.337,0.264,0.989,0.676,1.202
						c-0.437-0.053-0.613-0.627-0.893-0.977c-0.246-0.305-0.619-0.551-0.824-1.203C12.529,12.18,13.008,12.557,13.008,12.557z"/>
					<path fill="#FFCB05" d="M13.141,12.43c0.522,0.057,0.792,0.492,1.167,0.742c0.336,0.23,0.988,0.265,1.203,0.674
						c-0.055-0.436-0.629-0.615-0.979-0.891c-0.303-0.246-0.545-0.621-1.207-0.826C12.759,11.95,13.141,12.43,13.141,12.43z"/>
				</g>
			</g>
			<g>
				<polygon fill="#FFCB05" points="12.148,12.799 11.947,15.883 11.746,12.799 				"/>
				<polygon fill="#FFCB05" points="11.592,12.733 10.201,15.497 11.224,12.579 				"/>
				<g>
					<path fill="#FFCB05" d="M11.857,12.944c-0.331,0.41-0.216,0.91-0.301,1.35c-0.079,0.398-0.514,0.887-0.377,1.326
						c-0.268-0.344,0.011-0.877,0.06-1.322c0.042-0.385-0.049-0.824,0.269-1.432C11.787,12.334,11.857,12.944,11.857,12.944z"/>
					<path fill="#FFCB05" d="M12.042,12.944c0.323,0.41,0.208,0.91,0.294,1.35c0.08,0.398,0.514,0.887,0.379,1.326
						c0.268-0.344-0.012-0.877-0.062-1.322c-0.042-0.385,0.051-0.824-0.27-1.432C12.106,12.334,12.042,12.944,12.042,12.944z"/>
				</g>
			</g>
			<g>
				<polygon fill="#FFCB05" points="11.075,12.5 8.751,14.542 10.792,12.215 				"/>
				<polygon fill="#FFCB05" points="10.73,12.065 7.794,13.034 10.58,11.694 				"/>
				<g>
					<path fill="#FFCB05" d="M10.767,12.397c-0.521,0.057-0.795,0.492-1.17,0.744c-0.332,0.229-0.984,0.262-1.204,0.672
						c0.054-0.436,0.633-0.611,0.979-0.895c0.307-0.242,0.548-0.611,1.207-0.82C11.15,11.917,10.767,12.397,10.767,12.397z"/>
					<path fill="#FFCB05" d="M10.9,12.524c-0.062,0.525-0.498,0.797-0.748,1.166c-0.228,0.342-0.264,0.994-0.675,1.207
						c0.44-0.053,0.618-0.627,0.897-0.977c0.246-0.305,0.615-0.551,0.824-1.203C11.375,12.147,10.9,12.524,10.9,12.524z"/>
				</g>
			</g>
			<g>
				<polygon fill="#FFCB05" points="10.529,11.534 7.441,11.333 10.529,11.131 				"/>
				<polygon fill="#FFCB05" points="10.595,10.981 7.832,9.588 10.751,10.61 				"/>
				<g>
					<path fill="#FFCB05" d="M10.386,11.243c-0.414-0.328-0.913-0.213-1.352-0.299c-0.402-0.078-0.887-0.514-1.33-0.379
						c0.348-0.266,0.879,0.014,1.321,0.062c0.392,0.041,0.827-0.049,1.438,0.266C10.994,11.172,10.386,11.243,10.386,11.243z"/>
					<path fill="#FFCB05" d="M10.386,11.424c-0.414,0.328-0.913,0.213-1.352,0.299c-0.402,0.078-0.887,0.514-1.33,0.38
						c0.348,0.265,0.879-0.015,1.321-0.063c0.392-0.041,0.827,0.049,1.438-0.268C10.994,11.493,10.386,11.424,10.386,11.424z"/>
				</g>
			</g>
			<g>
				<polygon fill="#FFCB05" points="10.826,10.463 8.789,8.139 11.113,10.18 				"/>
				<polygon fill="#FFCB05" points="11.26,10.118 10.292,7.182 11.634,9.965 				"/>
				<g>
					<path fill="#FFCB05" d="M10.927,10.155c-0.057-0.525-0.492-0.797-0.738-1.166c-0.23-0.342-0.265-0.99-0.678-1.207
						c0.436,0.053,0.611,0.633,0.891,0.977c0.246,0.309,0.621,0.551,0.83,1.207C11.407,10.538,10.927,10.155,10.927,10.155z"/>
					<path fill="#FFCB05" d="M10.8,10.282c-0.521-0.057-0.797-0.492-1.166-0.742c-0.336-0.227-0.99-0.264-1.207-0.674
						C8.484,9.301,9.06,9.481,9.404,9.76c0.304,0.246,0.551,0.621,1.209,0.822C11.183,10.762,10.8,10.282,10.8,10.282z"/>
				</g>
			</g>
		</g>
		<circle fill="#FFCB05" stroke="#000000" stroke-width="0.0428" cx="11.971" cy="11.358" r="1.831"/>
		<path fill="none" stroke="#000000" stroke-width="0.0345" stroke-linecap="round" stroke-linejoin="round" d="M10.382,11.325
			c0.131-0.053,0.369-0.385,0.664-0.385c0.398,0,0.546,0.225,0.546,0.225"/>
		<path fill="none" stroke="#000000" stroke-width="0.0345" stroke-linecap="round" stroke-linejoin="round" d="M10.613,11.325
			c0,0,0.164-0.229,0.471-0.229c0.309,0,0.502,0.258,0.502,0.258s-0.07,0.02-0.182,0.09C11.298,11.514,10.949,11.649,10.613,11.325z
			"/>
		<g>
			<g>
				<path d="M11.294,11.137c-0.062-0.025-0.137-0.041-0.211-0.041c-0.075,0-0.139,0.016-0.201,0.031
					c-0.008,0.029-0.016,0.06-0.016,0.086c0,0.119,0.102,0.219,0.217,0.219c0.123,0,0.223-0.1,0.223-0.219
					C11.306,11.187,11.302,11.161,11.294,11.137z M11.091,11.276c-0.041,0-0.068-0.033-0.068-0.07s0.027-0.068,0.068-0.068
					c0.037,0,0.07,0.031,0.07,0.068S11.128,11.276,11.091,11.276z"/>
			</g>
		</g>
		<g>
			<path fill="none" stroke="#000000" stroke-width="0.0345" stroke-linecap="round" stroke-linejoin="round" d="M13.572,11.325
				c-0.127-0.053-0.365-0.385-0.665-0.385c-0.394,0-0.542,0.225-0.542,0.225"/>
			<path fill="none" stroke="#000000" stroke-width="0.0345" stroke-linecap="round" stroke-linejoin="round" d="M13.347,11.325
				c0,0-0.168-0.229-0.473-0.229c-0.309,0-0.502,0.258-0.502,0.258s0.069,0.02,0.182,0.09
				C12.662,11.514,13.008,11.649,13.347,11.325z"/>
			<g>
				<g>
					<path d="M13.071,11.127c-0.058-0.016-0.122-0.031-0.196-0.031c-0.078,0-0.149,0.016-0.208,0.041
						c-0.015,0.023-0.015,0.05-0.015,0.076c0,0.119,0.096,0.219,0.219,0.219c0.119,0,0.217-0.1,0.217-0.219
						C13.087,11.187,13.08,11.157,13.071,11.127z M12.863,11.276c-0.037,0-0.071-0.033-0.071-0.07s0.034-0.068,0.071-0.068
						c0.039,0,0.074,0.031,0.074,0.068S12.902,11.276,12.863,11.276z"/>
				</g>
			</g>
		</g>
		<path fill="none" stroke="#000000" stroke-width="0.0345" stroke-linecap="round" stroke-linejoin="round" d="M10.453,10.762
			c0.217-0.197,0.622-0.324,0.965-0.213c0.246,0.086,0.409,0.304,0.409,0.537c0,0.234-0.077,0.502-0.035,0.699"/>
		<path fill="none" stroke="#000000" stroke-width="0.0345" stroke-linecap="round" stroke-linejoin="round" d="M12.152,10.911
			c0.164-0.197,0.693-0.658,1.374-0.148"/>
		<path fill="none" stroke="#000000" stroke-width="0.0345" stroke-linecap="round" stroke-linejoin="round" d="M11.531,11.883
			c0.018,0.131,0.156,0.156,0.238,0.1c0.033,0.057,0.137,0.098,0.227,0.086"/>
		<path fill="none" stroke="#000000" stroke-width="0.0345" stroke-linecap="round" stroke-linejoin="round" d="M12.144,11.965
			c0,0,0.183,0.062,0.254-0.023"/>
		<path fill="none" stroke="#000000" stroke-width="0.0345" stroke-linecap="round" stroke-linejoin="round" d="M11.564,12.483
			c0.115-0.086,0.137-0.176,0.245-0.193c0.079-0.016,0.19,0.033,0.19,0.033s0.029-0.023,0.141-0.023c0.109,0,0.195,0.16,0.302,0.16
			c0,0-0.179,0.217-0.466,0.217C11.687,12.676,11.564,12.483,11.564,12.483z"/>
		<path fill="none" stroke="#000000" stroke-width="0.0345" stroke-linecap="round" stroke-linejoin="round" d="M11.69,12.483
			c0,0,0.097,0.004,0.202,0c0.104-0.008,0.305,0.008,0.367,0"/>
	</g>
	<path fill="none" stroke="#808285" stroke-width="0.4123" d="M24.085,11.42c0,6.582-5.338,11.916-11.922,11.916
		c-6.582,0-11.916-5.334-11.916-11.916c0-6.584,5.334-11.922,11.916-11.922C18.748-0.501,24.085,4.836,24.085,11.42z"/>
</g>
</svg>
