<?xml version="1.0" encoding="utf-8"?>
<!-- Generator: Adobe Illustrator 16.0.0, SVG Export Plug-In . SVG Version: 6.00 Build 0)  -->
<!DOCTYPE svg PUBLIC "-//W3C//DTD SVG 1.1//EN" "http://www.w3.org/Graphics/SVG/1.1/DTD/svg11.dtd">
<svg version="1.1" id="Layer_1" xmlns="http://www.w3.org/2000/svg" xmlns:xlink="http://www.w3.org/1999/xlink" x="0px" y="0px"
	 width="10.613px" height="4.631px" viewBox="0 0 10.613 4.631" enable-background="new 0 0 10.613 4.631" xml:space="preserve">
<path fill="#808285" d="M10.208,1.771c-0.194-0.065-1.549-0.355-1.549-0.355S6.143,0,5.842,0S3.475,0.012,3.475,0.012
	C2.969,0.016,2.552,0.4,2.062,0.848c-0.227,0.213-0.48,0.443-0.76,0.646L0.258,1.642C0.107,1.691,0,1.831,0,1.997l0.006,1.198
	c0,0.206,0.17,0.37,0.375,0.37l0.72-0.002c0.053,0.6,0.559,1.07,1.174,1.067c0.613,0,1.116-0.478,1.165-1.077L6.864,3.54
	c0.056,0.6,0.562,1.067,1.175,1.063c0.614,0,1.116-0.476,1.166-1.075l0.593-0.004c0.578-0.017,0.725-0.197,0.748-0.394
	C10.603,2.647,10.767,1.905,10.208,1.771L10.208,1.771z M2.271,4.146C1.891,4.147,1.58,3.842,1.576,3.46
	c-0.001-0.38,0.308-0.693,0.69-0.695c0.379,0,0.69,0.308,0.693,0.688C2.96,3.832,2.651,4.142,2.271,4.146L2.271,4.146z M8.039,4.122
	c-0.383,0-0.694-0.309-0.694-0.688C7.342,3.051,7.653,2.742,8.031,2.738c0.382,0,0.694,0.307,0.694,0.687
	C8.726,3.807,8.419,4.118,8.039,4.122L8.039,4.122z M8.039,4.04"/>
</svg>
