<?xml version="1.0" encoding="utf-8"?>
<!-- Generator: Adobe Illustrator 16.0.0, SVG Export Plug-In . SVG Version: 6.00 Build 0)  -->
<!DOCTYPE svg PUBLIC "-//W3C//DTD SVG 1.1//EN" "http://www.w3.org/Graphics/SVG/1.1/DTD/svg11.dtd">
<svg version="1.1" id="Layer_1" xmlns="http://www.w3.org/2000/svg" xmlns:xlink="http://www.w3.org/1999/xlink" x="0px" y="0px"
	 width="7.564px" height="6.163px" viewBox="0 0 7.564 6.163" enable-background="new 0 0 7.564 6.163" xml:space="preserve">
<g>
	<path fill="#808285" d="M0,0.28C0,0.126,0.128,0,0.28,0h4.483c0.152,0,0.28,0.126,0.28,0.28v0.84h0.7
		c0.157,0,0.367,0.087,0.477,0.197l0.868,0.868c0.24,0.24,0.197,0.586,0.197,0.896v1.401c0.152,0,0.28,0.125,0.28,0.279
		c0,0.326-0.341,0.281-0.56,0.281h-0.28c0,0.618-0.504,1.121-1.121,1.121c-0.618,0-1.121-0.503-1.121-1.121H2.801
		c0,0.618-0.503,1.121-1.121,1.121c-0.616,0-1.121-0.503-1.121-1.121C0.342,5.042,0,5.087,0,4.761V0.28z M6.724,2.801V2.669
		c0-0.017-0.026-0.083-0.04-0.096L5.83,1.721C5.817,1.707,5.752,1.681,5.735,1.681H5.043v1.121H6.724z M5.043,5.042
		c0,0.305,0.254,0.561,0.56,0.561s0.56-0.255,0.56-0.561c0-0.307-0.254-0.56-0.56-0.56S5.043,4.735,5.043,5.042z M1.121,5.042
		c0,0.305,0.254,0.561,0.56,0.561c0.307,0,0.561-0.255,0.561-0.561c0-0.307-0.254-0.56-0.561-0.56
		C1.375,4.482,1.121,4.735,1.121,5.042z"/>
</g>
</svg>
