<?xml version="1.0" encoding="utf-8"?>
<!-- Generator: Adobe Illustrator 16.0.0, SVG Export Plug-In . SVG Version: 6.00 Build 0)  -->
<!DOCTYPE svg PUBLIC "-//W3C//DTD SVG 1.1//EN" "http://www.w3.org/Graphics/SVG/1.1/DTD/svg11.dtd">
<svg version="1.1" id="Layer_1" xmlns="http://www.w3.org/2000/svg" xmlns:xlink="http://www.w3.org/1999/xlink" x="0px" y="0px"
	 width="16.887px" height="14.526px" viewBox="0 0 16.887 14.526" enable-background="new 0 0 16.887 14.526" xml:space="preserve">
<path fill="#83B8D0" d="M16.242,3.621l-6.36-0.426C9.747,2.246,9.483,1.308,9.086,0.418c-0.25-0.556-1.02-0.56-1.274,0
	C7.41,1.304,7.145,2.242,7.008,3.187l-6.36,0.414c-0.362,0.02-0.644,0.32-0.646,0.688L0,5.398c-0.003,0.348,0.258,0.645,0.602,0.691
	l2.943,0.367c0.564,0.074,1.134,0.109,1.704,0.109l1.817,0.008C7.13,6.91,7.203,7.25,7.297,7.582
	c0.258,0.895,0.461,1.805,0.531,2.738c0.019,0.242,0.036,0.461,0.054,0.68l-1.77,0.316c-0.332,0.055-0.573,0.344-0.569,0.68
	l-0.004,0.23c0,0.348,0.258,0.645,0.602,0.692l1.906,0.257c0.02,0.305,0.031,0.625,0.039,0.969c0,0.508,0.689,0.512,0.689,0
	c0.014-0.348,0.025-0.664,0.045-0.969l1.906-0.254c0.344-0.043,0.598-0.34,0.598-0.688l0.004-0.23
	c-0.004-0.332-0.242-0.625-0.57-0.684l-1.77-0.316c0.02-0.223,0.039-0.438,0.057-0.68c0.077-0.934,0.279-1.84,0.536-2.738
	C9.679,7.25,9.754,6.914,9.815,6.574l1.821,0.004c0.566,0,1.137-0.031,1.703-0.105l2.945-0.363c0.344-0.039,0.6-0.34,0.6-0.688
	l0.002-1.105C16.887,3.949,16.607,3.644,16.242,3.621L16.242,3.621z M16.242,3.621"/>
</svg>
