<?xml version="1.0" encoding="utf-8"?>
<!-- Generator: Adobe Illustrator 16.0.0, SVG Export Plug-In . SVG Version: 6.00 Build 0)  -->
<!DOCTYPE svg PUBLIC "-//W3C//DTD SVG 1.1//EN" "http://www.w3.org/Graphics/SVG/1.1/DTD/svg11.dtd">
<svg version="1.1" id="Layer_1" xmlns="http://www.w3.org/2000/svg" xmlns:xlink="http://www.w3.org/1999/xlink" x="0px" y="0px"
	 width="24.351px" height="24.519px" viewBox="0 0 24.351 24.519" enable-background="new 0 0 24.351 24.519" xml:space="preserve">
<g>
	<g>
		<path fill="#BBD75A" d="M12.174,24.519C5.461,24.519,0,19.019,0,12.258C0,5.499,5.461,0,12.174,0
			c6.714,0,12.176,5.499,12.176,12.258C24.351,19.019,18.888,24.519,12.174,24.519z M12.174,0.636
			c-6.362,0-11.539,5.214-11.539,11.623c0,6.41,5.176,11.625,11.539,11.625c6.363,0,11.541-5.215,11.541-11.625
			C23.715,5.85,18.538,0.636,12.174,0.636z"/>
	</g>
	<g>
		<path fill="#BBD75A" d="M18.104,12.258c0,3.298-2.652,5.971-5.93,5.971c-3.272,0-5.926-2.673-5.926-5.971
			c0-3.297,2.653-5.97,5.926-5.97C15.452,6.289,18.104,8.961,18.104,12.258z"/>
		<path fill="#BBD75A" d="M12.174,18.388c-3.355,0-6.084-2.75-6.084-6.129c0-3.379,2.729-6.128,6.084-6.128
			c3.357,0,6.088,2.749,6.088,6.128C18.263,15.638,15.532,18.388,12.174,18.388z M12.174,6.447c-3.18,0-5.767,2.607-5.767,5.811
			c0,3.205,2.587,5.812,5.767,5.812c3.182,0,5.771-2.607,5.771-5.812C17.945,9.054,15.356,6.447,12.174,6.447z"/>
	</g>
</g>
</svg>
