<?xml version="1.0" encoding="utf-8"?>
<!-- Generator: Adobe Illustrator 16.0.0, SVG Export Plug-In . SVG Version: 6.00 Build 0)  -->
<!DOCTYPE svg PUBLIC "-//W3C//DTD SVG 1.1//EN" "http://www.w3.org/Graphics/SVG/1.1/DTD/svg11.dtd">
<svg version="1.1" id="Layer_1" xmlns="http://www.w3.org/2000/svg" xmlns:xlink="http://www.w3.org/1999/xlink" x="0px" y="0px"
	 width="3.305px" height="8.617px" viewBox="0 0 3.305 8.617" enable-background="new 0 0 3.305 8.617" xml:space="preserve">
<g>
	<path fill-rule="evenodd" clip-rule="evenodd" fill="#808285" d="M3.305,4.729c0,0.204-0.128,0.343-0.305,0.346
		c-0.184,0-0.308-0.135-0.312-0.346c0-0.594,0-1.184,0-1.777c0-0.045,0-0.092,0-0.143C2.635,2.806,2.594,2.801,2.53,2.801
		c0,0.056,0,0.103,0,0.15c0,1.697,0.001,3.392,0,5.094c0,0.076,0.005,0.159-0.011,0.24C2.484,8.488,2.316,8.623,2.117,8.616
		c-0.206-0.007-0.365-0.145-0.391-0.35C1.72,8.204,1.721,8.146,1.721,8.088c0-0.951,0-1.902,0-2.853c0-0.052,0-0.099,0-0.157
		c-0.053,0-0.093,0-0.146,0c0,0.059,0,0.105,0,0.157c0,0.979,0.002,1.96,0.002,2.939c0,0.26-0.148,0.431-0.38,0.441
		C0.975,8.627,0.789,8.467,0.771,8.244c-0.002-0.031,0-0.069,0-0.102c0-1.73,0-3.461,0-5.191c0-0.045,0-0.092,0-0.143
		C0.717,2.806,0.678,2.801,0.615,2.801c0,0.047,0,0.096,0,0.139c0,0.598,0.002,1.195,0,1.789c0,0.252-0.2,0.404-0.414,0.324
		C0.072,5.006,0.002,4.903,0.002,4.765c0-0.771-0.006-1.548,0.004-2.325c0.007-0.438,0.385-0.808,0.826-0.816
		c0.545-0.006,1.092-0.006,1.639,0c0.46,0.009,0.827,0.395,0.83,0.873"/>
	<path fill-rule="evenodd" clip-rule="evenodd" fill="#808285" d="M1.646,1.42C1.249,1.417,0.933,1.097,0.939,0.699
		C0.943,0.301,1.263-0.004,1.661,0c0.394,0,0.701,0.316,0.701,0.711C2.36,1.107,2.042,1.424,1.646,1.42z"/>
</g>
</svg>
