<?xml version="1.0" encoding="utf-8"?>
<!-- Generator: Adobe Illustrator 16.0.0, SVG Export Plug-In . SVG Version: 6.00 Build 0)  -->
<!DOCTYPE svg PUBLIC "-//W3C//DTD SVG 1.1//EN" "http://www.w3.org/Graphics/SVG/1.1/DTD/svg11.dtd">
<svg version="1.1" id="Layer_1" xmlns="http://www.w3.org/2000/svg" xmlns:xlink="http://www.w3.org/1999/xlink" x="0px" y="0px"
	 width="24.333px" height="24.364px" viewBox="0 0 24.333 24.364" enable-background="new 0 0 24.333 24.364" xml:space="preserve">
<g>
	<g>
		<defs>
			<circle id="SVGID_5_" cx="12.19" cy="12.202" r="11.955"/>
		</defs>
		<clipPath id="SVGID_2_">
			<use xlink:href="#SVGID_5_"  overflow="visible"/>
		</clipPath>
		<rect x="5.99" y="0.078" clip-path="url(#SVGID_2_)" fill="#FFFFFF" width="12.741" height="24.379"/>
		<g clip-path="url(#SVGID_2_)">
			<rect x="5.99" y="0.377" fill="none" width="12.705" height="23.446"/>
			<path fill="#FFFFFF" d="M12.343,12.101"/>
			<rect x="-6.7" y="0.377" fill="none" width="38.096" height="23.446"/>
			<path fill="none" stroke="#000000" stroke-width="0.0955" d="M12.349,12.101"/>
			<g>
				<rect x="-6.7" y="0.377" fill="#EF3E23" width="12.7" height="23.446"/>
			</g>
			<g>
				<rect x="18.683" y="0.377" fill="#EF3E23" width="12.703" height="23.446"/>
			</g>
			<rect x="-6.7" y="0.377" fill="none" width="38.085" height="23.446"/>
			<path fill="none" d="M12.349,12.101"/>
			<g>
				<g>
					<path fill="#00A651" stroke="#000000" stroke-width="0.0382" d="M12.551,7.601c0.256,0.079,0.589,0.057,0.82-0.087
						c-0.041-0.056-0.111-0.11-0.111-0.11c0.21-0.034,0.4-0.167,0.455-0.289L13.604,7.07c0.111-0.088,0.288-0.3,0.313-0.388h-0.113
						c0.136-0.111,0.224-0.333,0.202-0.565l-0.066,0.067c0.066-0.234,0.031-0.467,0-0.566c0,0-0.146,0.121-0.179,0.232
						c0-0.156-0.066-0.375-0.157-0.508l-0.076,0.143c-0.066-0.178-0.189-0.256-0.278-0.322c-0.01,0.056-0.021,0.156-0.021,0.156
						c-0.055-0.144-0.21-0.222-0.311-0.255c0.009,0.099,0.066,0.31,0.101,0.367c-0.124-0.046-0.156-0.014-0.212,0
						c0.078,0.131,0.177,0.242,0.278,0.298c-0.056,0.143-0.013,0.621,0.075,0.743c-0.067,0.054-0.088,0.132-0.088,0.277
						c-0.131,0.021-0.366,0.078-0.44,0.465C12.607,7.336,12.65,7.47,12.551,7.601z"/>
					<path fill="none" stroke="#000000" stroke-width="0.0382" d="M12.551,7.601c0.178-0.154,0.276-0.265,0.708-0.197"/>
					<path fill="none" stroke="#000000" stroke-width="0.0382" d="M13.004,7.392c0.081-0.166,0.234-0.354,0.599-0.321"/>
					<path fill="none" stroke="#000000" stroke-width="0.0382" d="M13.259,7.125c0.09-0.232,0.289-0.432,0.544-0.443"/>
					<path fill="none" stroke="#000000" stroke-width="0.0382" d="M13.939,6.185c-0.125,0.087-0.401,0.364-0.412,0.585"/>
					<path fill="none" stroke="#000000" stroke-width="0.0382" d="M13.714,6.394c-0.01-0.188-0.177-0.554-0.354-0.655
						c0.022-0.11-0.145-0.264-0.342-0.308"/>
					<path fill="none" stroke="#000000" stroke-width="0.0382" d="M13.527,5.485c0.035,0.1,0.01,0.287-0.045,0.354"/>
					<path fill="none" stroke="#000000" stroke-width="0.0382" d="M13.76,5.851c0.01,0.155-0.035,0.255-0.101,0.334"/>
					<path fill="none" stroke="#000000" stroke-width="0.0382" d="M13.515,6.727c-0.11-0.011-0.286-0.144-0.354-0.254"/>
					<path fill="none" stroke="#000000" stroke-width="0.0382" d="M13.361,5.739c-0.112,0.013-0.21,0.023-0.276-0.01
						c0.008,0.143,0.131,0.311,0.265,0.432l0.045-0.111c0.132,0.111,0.221,0.233,0.233,0.443"/>
					<line fill="none" stroke="#000000" stroke-width="0.0382" x1="13.646" y1="6.128" x2="13.571" y2="6.238"/>
					<path fill="none" stroke="#000000" stroke-width="0.0382" d="M13.35,6.162c-0.043,0.122-0.02,0.388,0.021,0.499"/>
					<path fill="none" stroke="#000000" stroke-width="0.0382" d="M13.307,7.048c-0.167-0.023-0.434-0.111-0.566,0.399"/>
					<path fill="none" stroke="#000000" stroke-width="0.0382" d="M13.438,6.704c-0.131,0.023-0.278,0.134-0.31,0.322"/>
					<path fill="none" stroke="#000000" stroke-width="0.0382" d="M13.072,6.75c0.013,0.078,0.057,0.132,0.088,0.165"/>
					<path fill="none" stroke="#000000" stroke-width="0.0382" d="M13.019,6.76c-0.058,0.087-0.068,0.21-0.035,0.288"/>
					<path fill="#ED1C24" stroke="#000000" stroke-width="0.0382" d="M13.482,7.758c-0.144,0.021-0.365,0.044-0.463-0.057
						c-0.101-0.1-0.344-0.177-0.488-0.133c-0.144,0.044-0.189,0.056-0.189,0.056l0.031,0.178c0.146-0.057,0.267-0.067,0.391,0.044
						c0.122,0.109,0.418,0.22,0.742,0.121L13.482,7.758z"/>
					<path fill="none" stroke="#000000" stroke-width="0.0382" d="M13.229,5.319c-0.012,0.099,0,0.2,0,0.2"/>
					<path fill="#FFCB05" stroke="#ED1C24" stroke-width="0.0382" d="M12.393,14.727c0.2-0.354,0.756-0.574,1.398-0.665
						c0.643-0.087,1.108-0.289,1.438-0.952c0.333-0.667-0.108-1.686-0.464-2.593c-0.356-0.908,0.2-1.773,0.531-2.149l-0.753-0.776
						c-1.04,0.842-1.95,0.331-2.15,0.088c-0.198,0.243-1.106,0.753-2.148-0.088L9.489,8.368c0.333,0.375,0.888,1.241,0.534,2.149
						c-0.356,0.908-0.799,1.926-0.465,2.593c0.332,0.664,0.799,0.865,1.441,0.952C11.641,14.152,12.195,14.373,12.393,14.727z"/>
					<path fill="#ED1C24" stroke="#ED1C24" stroke-width="0.0382" d="M14.79,11.257c0.035,0.083,0.072,0.175,0.109,0.279
						c0.198,0.553,0.354,1.24-0.068,1.729c-0.421,0.488-1.001,0.558-1.241,0.599c-0.253,0.045-0.875,0.12-1.197,0.486
						c-0.322-0.366-0.943-0.441-1.194-0.486c-0.241-0.041-0.822-0.111-1.244-0.599c-0.422-0.488-0.264-1.176-0.066-1.729
						c0.039-0.104,0.074-0.195,0.107-0.279H14.79z"/>
					<path fill="#008FD5" stroke="#ED1C24" stroke-width="0.0382" d="M12.261,8.101c-0.268,0.155-1.085,0.464-1.973-0.2L9.845,8.368
						c0.243,0.354,0.62,1.041,0.511,1.728c-0.069,0.416-0.155,0.653-0.251,0.9h2.156V8.101z"/>
					<path fill="#FFFFFF" stroke="#ED1C24" stroke-width="0.0382" d="M12.526,8.101c0.268,0.155,1.086,0.464,1.974-0.2l0.442,0.466
						c-0.243,0.354-0.62,1.041-0.509,1.728c0.066,0.416,0.15,0.653,0.25,0.9h-2.157V8.101z"/>
					<path fill="#FFCB05" stroke="#000000" stroke-width="0.0382" d="M10.727,9.935c-0.029,0.061-0.029,0.195,0.002,0.261
						c0.025,0.065-0.071,0.188-0.132,0.232c-0.058,0.046-0.142,0.105-0.136,0.193l-0.006,0.328h0.072l0.035-0.271
						c0.035-0.078,0.119-0.155,0.154-0.187c-0.035,0.066-0.074,0.159-0.045,0.226c0.026,0.066,0.15,0.221,0.15,0.221l0.088-0.005
						l-0.095-0.199c-0.035-0.072-0.017-0.116,0.026-0.144c0.045-0.027,0.146-0.187,0.161-0.266c0.082-0.011,0.19-0.033,0.249-0.022
						c0.062,0.011,0.268,0.056,0.341,0.034l0.029,0.581h0.08l0.051-0.448l0.099,0.077l0.099,0.359l0.094-0.005l-0.084-0.476
						l-0.099-0.26c0.065-0.027,0.157-0.245,0.079-0.471c0.065,0.016,0.095-0.089,0.033-0.205c-0.06-0.117-0.193-0.289-0.105-0.416
						c0.031-0.034,0.088-0.027,0.15-0.012c0.06,0.018,0.081-0.093,0-0.126c-0.086-0.033-0.091-0.033-0.091-0.033
						c0.033-0.062,0-0.101-0.065-0.117c-0.066-0.018-0.119-0.011-0.136-0.067c-0.021-0.054-0.063-0.033-0.063,0
						c0,0.033-0.031,0.049-0.066,0.039c-0.033-0.011-0.122,0.017-0.01,0.078c-0.033,0.062-0.027,0.111-0.017,0.211
						c0.011,0.1,0.132,0.426,0.062,0.515c-0.072,0.089-0.234,0.138-0.375,0.094c-0.136-0.043-0.404-0.039-0.54,0.029
						c-0.14,0.065-0.221,0.166-0.227,0.371C10.527,9.989,10.619,9.939,10.727,9.935z"/>
					<line fill="none" stroke="#000000" stroke-width="0.0382" x1="11.002" y1="10.322" x2="11.104" y2="10.123"/>
					<line fill="none" stroke="#000000" stroke-width="0.0382" x1="11.63" y1="10.14" x2="11.752" y2="10.467"/>
					<line fill="none" stroke="#000000" stroke-width="0.0382" x1="11.592" y1="10.334" x2="11.69" y2="10.294"/>
					<polygon fill="#53493B" points="13.597,10.777 13.628,8.916 13.733,8.916 13.794,10.777 					"/>
					<path fill="#00A651" d="M12.526,10.996c0.072-0.074,0.997-0.247,1.15-0.247c0.15,0,0.76,0.092,1.007,0.247H12.526z"/>
					<path fill="#00A651" d="M13.602,10.101c-0.066-0.034-0.132-0.06-0.205-0.049c-0.071,0.011-0.193,0.011-0.245,0.055
						c-0.047,0.045-0.152,0-0.115-0.055c0.037-0.056,0.068-0.145,0.017-0.188c-0.052-0.045-0.14-0.067-0.167-0.034
						c-0.026,0.034-0.06,0.077-0.093,0.1c-0.037,0.021-0.179,0-0.097-0.117c0.084-0.117,0.101-0.167,0.068-0.2
						c-0.033-0.034-0.033-0.044-0.084-0.034c-0.049,0.012-0.098-0.099-0.049-0.126c0.049-0.028,0.045-0.128,0.023-0.195
						c-0.023-0.066,0.065-0.144,0.103-0.049c0.041,0.095,0.056,0.149,0.104,0.144c0.043-0.005,0.121,0.066,0.083,0.123
						c-0.04,0.055-0.029,0.094,0,0.143c0.028,0.049,0.094,0.088,0.111,0.04c0.016-0.049,0.099-0.072,0.113,0.01
						c0.008,0.083,0.008,0.14,0.056,0.167c0.053,0.029,0.086-0.005,0.076-0.061c-0.015-0.055,0.083-0.083,0.109-0.011
						c0.028,0.071,0.053,0.167,0.104,0.193c0.052,0.027,0.095,0.006,0.099-0.039L13.602,10.101z"/>
					<path fill="#00A651" d="M13.618,9.763c-0.028-0.078-0.111-0.2-0.177-0.238c-0.068-0.039-0.111-0.061-0.183-0.05
						c-0.072,0.011-0.109-0.088-0.051-0.11c0.062-0.023,0.074-0.101,0.008-0.094c-0.066,0.004-0.145,0-0.177-0.035
						c-0.035-0.033-0.035-0.083,0.022-0.094c0.054-0.012,0.099-0.055,0.089-0.112c-0.012-0.055-0.035-0.099-0.101-0.099
						c-0.066,0-0.139-0.021-0.139-0.078c0-0.056,0.05-0.083,0.093-0.066c0.046,0.016,0.058-0.023,0.029-0.066
						c-0.029-0.045,0.049-0.133,0.088-0.055c0.039,0.077,0.085,0.088,0.122,0.077c0.039-0.011,0.146,0.073,0.085,0.133
						c-0.062,0.061-0.058,0.128-0.033,0.167c0.02,0.038,0.059,0.095,0.104,0.033c0.043-0.062,0.138-0.011,0.102,0.055
						c-0.042,0.066-0.021,0.21,0.031,0.267c0.049,0.056,0.088,0.078,0.088,0.078V9.763z"/>
					<path fill="#00A651" d="M13.624,9.098c-0.022-0.071-0.059-0.149-0.111-0.204c-0.051-0.057-0.088-0.129-0.077-0.201
						c0.009-0.071,0.087-0.099,0.12-0.066c0.034,0.034,0.062-0.012,0.042-0.078c-0.024-0.066,0-0.116,0.043-0.116
						c0.045,0,0.099,0.033,0.076,0.111c-0.014,0.038,0.013,0.105,0.058,0.083c0.043-0.022,0.117,0.045,0.083,0.122
						c-0.029,0.07-0.118,0.266-0.124,0.339C13.729,9.138,13.659,9.176,13.624,9.098z"/>
					<path fill="#00A651" d="M13.765,9.596c0.02-0.071,0.086-0.221,0.069-0.309c-0.016-0.09-0.069-0.194-0.022-0.223
						c0.052-0.028,0.167,0.073,0.167-0.06c0-0.135,0.006-0.24,0-0.306c-0.006-0.066,0.073-0.077,0.079,0
						c0.006,0.079,0.105,0.128,0.115,0.023c0.011-0.106,0.05-0.2,0.112-0.227c0.062-0.028,0.122,0.021,0.104,0.087
						c-0.016,0.067-0.049,0.117-0.078,0.161c-0.026,0.044-0.033,0.111,0.009,0.133c0.039,0.023,0.065,0.123-0.015,0.133
						c-0.074,0.011-0.148,0.083-0.103,0.11c0.043,0.028,0.043,0.105-0.029,0.145c-0.072,0.04-0.172,0.11-0.213,0.178
						c-0.048,0.066-0.101,0.205-0.193,0.288V9.596z"/>
					<path fill="#00A651" d="M13.774,10.018c0.055-0.035,0.089-0.056,0.076-0.15c-0.01-0.094-0.01-0.172,0.033-0.182
						c0.043-0.011,0.055,0,0.074,0.026c0.014,0.028,0.065,0.028,0.083-0.021c0.016-0.049,0.042-0.117,0.032-0.183
						c-0.01-0.066,0.078-0.095,0.089-0.033c0.01,0.061,0.105,0.016,0.109-0.056c0.006-0.072,0.062-0.115,0.087-0.049
						c0.02,0.066-0.013,0.16-0.048,0.222c-0.033,0.06-0.019,0.115-0.01,0.154c0.01,0.039,0.004,0.111-0.062,0.105
						c-0.066-0.005-0.093,0.062-0.056,0.111c0.04,0.05,0.023,0.104-0.021,0.123c-0.045,0.016-0.072,0-0.072-0.056
						s-0.043-0.046-0.074-0.006c-0.027,0.039-0.088,0.112-0.047,0.149c0.037,0.039,0.059,0.078,0.02,0.1
						c-0.037,0.022-0.082,0.017-0.093-0.054c0.004-0.051-0.09-0.046-0.117,0.021L13.774,10.018z"/>
					<path fill="#FFCB05" stroke="#000000" stroke-width="0.0382" d="M11.344,11.512c-0.076-0.05-0.414-0.058-0.395,0.202
						c-0.107-0.05-0.422-0.017-0.405,0.222c-0.135-0.016-0.246,0.07-0.256,0.144c-0.01,0.071-0.02,0.169,0.128,0.204
						c-0.049,0.043-0.066,0.122-0.049,0.217c-0.115,0.028-0.146,0.209-0.113,0.263c-0.043,0.025-0.07,0.152-0.033,0.189
						c-0.088,0.025-0.098,0.16-0.037,0.206c0.061,0.045,0.132,0.033,0.177-0.016c-0.036,0.088,0.006,0.206,0.15,0.189
						c-0.021,0.087,0.109,0.243,0.312,0.132c0.047,0.004,0.176-0.023,0.21-0.074c0.014,0.095,0.259,0.247,0.387,0.074
						c0.04,0.065,0.243,0.157,0.348,0.026c0.013,0.078,0.179,0.151,0.253,0.062c0.045,0.068,0.208,0.101,0.247-0.006
						c0.027,0.05,0.145,0.095,0.188,0.062c0.028,0.045,0.167,0.066,0.222,0.017c0.037,0.072,0.294,0.144,0.35-0.029
						c0.027-0.066-0.107-0.247-0.307-0.111c-0.01-0.065-0.088-0.177-0.276-0.12c-0.032-0.016-0.088-0.012-0.088-0.012
						c0.017-0.088-0.049-0.2-0.196-0.157c0.025-0.066-0.033-0.214-0.233-0.21c0.05-0.033,0.093-0.132,0.039-0.222
						c0.054,0,0.131-0.136,0.095-0.231c0.051,0,0.127-0.09,0.144-0.183c0.049,0.033,0.15,0.04,0.183,0
						c0.027,0.06,0.122,0.101,0.184,0.088c-0.017,0.079,0.105,0.244,0.204,0.251c0,0.086,0.148,0.276,0.298,0.26
						c0.006,0.086,0.229,0.233,0.299,0.115c0.042,0.075,0.256,0.189,0.333,0.088c0.033,0.051,0.189,0.089,0.246,0.016
						c0.045,0.056,0.214,0.023,0.229-0.067c0.042,0.024,0.247-0.037,0.212-0.21c0.102-0.004,0.282-0.169,0.218-0.309
						c0.047-0.05,0.047-0.239-0.043-0.299c0.036-0.045,0.002-0.167-0.073-0.2c0.022-0.072-0.034-0.199-0.128-0.209
						c0.012-0.066-0.114-0.21-0.232-0.161c-0.044-0.058-0.171-0.107-0.287-0.045c-0.045-0.033-0.184-0.033-0.239,0.028
						c-0.062,0-0.156,0.161-0.052,0.227c-0.016,0.079,0.042,0.16,0.104,0.156c0.057-0.008,0.086-0.074,0.066-0.14
						c0.04,0,0.065-0.046,0.054-0.095c0.055,0.033,0.148,0.012,0.173-0.038c0.037,0.05,0.152,0.1,0.21,0.071
						c-0.006,0.049,0.051,0.124,0.099,0.117c-0.022,0.072-0.004,0.188,0.049,0.227c-0.049,0.039-0.054,0.171,0,0.212
						c-0.054-0.008-0.116,0.083-0.092,0.131c-0.056-0.029-0.145,0.046-0.124,0.105c-0.062-0.039-0.159,0.006-0.151,0.084
						c-0.037-0.049-0.117-0.057-0.174-0.016c-0.013-0.058-0.134-0.107-0.229-0.058c-0.037-0.054-0.125-0.128-0.2-0.128
						c0-0.043-0.125-0.198-0.249-0.171c-0.004-0.093-0.152-0.229-0.23-0.217c0.022-0.083-0.111-0.23-0.217-0.23
						c-0.012-0.084-0.161-0.317-0.389-0.284c-0.032-0.099-0.204-0.315-0.471-0.148C11.734,11.415,11.464,11.348,11.344,11.512z"/>
					<path fill="#FFCB05" stroke="#000000" stroke-width="0.0382" d="M10.416,12.284c0.155-0.019,0.835-0.068,1.55,0.48"/>
					<path fill="#FFCB05" stroke="#000000" stroke-width="0.0382" d="M12.061,12.533c-0.42-0.337-1.386-0.588-1.517-0.597"/>
					<path fill="#FFCB05" stroke="#000000" stroke-width="0.0382" d="M10.949,11.714c0.144,0.07,0.846,0.499,1.132,0.803"/>
					<path fill="#FFCB05" stroke="#000000" stroke-width="0.0382" d="M11.344,11.512c0.146,0.101,0.692,0.772,0.795,0.976"/>
					<path fill="#FFCB05" stroke="#000000" stroke-width="0.0382" d="M11.783,11.504c0.084,0.115,0.376,0.686,0.422,0.846"/>
					<path fill="#FFCB05" stroke="#000000" stroke-width="0.0382" d="M12.254,11.652c0.052,0.111,0.157,0.327,0.134,0.698"/>
					<path fill="#FFCB05" stroke="#000000" stroke-width="0.0382" d="M12.644,11.936c0.037,0.116-0.022,0.397-0.072,0.502"/>
					<path fill="#FFCB05" stroke="#000000" stroke-width="0.0382" d="M12.86,12.167c0.037,0.145-0.04,0.423-0.084,0.523"/>
					<path fill="#FFCB05" stroke="#000000" stroke-width="0.0382" d="M13.091,12.383c-0.011,0.105-0.037,0.459-0.017,0.566"/>
					<path fill="#FFCB05" stroke="#000000" stroke-width="0.0382" d="M13.34,12.554c0.012,0.111-0.031,0.416,0.033,0.511"/>
					<path fill="#FFCB05" stroke="#000000" stroke-width="0.0382" d="M13.54,12.682c0.033,0.117,0.084,0.405,0.167,0.471"/>
					<path fill="#FFCB05" stroke="#000000" stroke-width="0.0382" d="M13.769,12.74c0.026,0.098,0.037,0.321,0.183,0.43"/>
					<path fill="#FFCB05" stroke="#000000" stroke-width="0.0382" d="M13.943,12.756c0.062,0.07,0.202,0.315,0.237,0.346"/>
					<path fill="#FFCB05" stroke="#000000" stroke-width="0.0382" d="M14.094,12.671c0.057,0.078,0.197,0.229,0.298,0.22"/>
					<path fill="#FFCB05" stroke="#000000" stroke-width="0.0382" d="M14.217,12.566c0.082,0.03,0.294,0.05,0.393,0.017"/>
					<path fill="#FFCB05" stroke="#000000" stroke-width="0.0382" d="M14.31,12.435c0.083-0.012,0.196-0.084,0.257-0.15"/>
					<path fill="#FFCB05" stroke="#000000" stroke-width="0.0382" d="M14.31,12.223c0.056-0.023,0.161-0.105,0.184-0.139"/>
					<path fill="#FFCB05" stroke="#000000" stroke-width="0.0382" d="M14.26,11.996c0.066-0.006,0.111-0.088,0.105-0.122"/>
					<path fill="#FFCB05" stroke="#000000" stroke-width="0.0382" d="M14.133,11.714c0.038,0.049,0.067,0.111,0.028,0.165"/>
					<path fill="#FFCB05" stroke="#000000" stroke-width="0.0382" d="M13.847,11.669c0.053,0.039,0.096,0.078,0.105,0.139"/>
					<path fill="#FFCB05" stroke="#000000" stroke-width="0.0382" d="M13.607,11.697c0.068,0.027,0.161,0.083,0.171,0.148"/>
					<path fill="#FFCB05" stroke="#000000" stroke-width="0.0382" d="M13.556,11.924c0.046,0.021,0.125,0.027,0.169,0.017"/>
					<path fill="#FFCB05" stroke="#000000" stroke-width="0.0382" d="M10.366,12.501c0.076,0.016,0.266-0.017,0.262-0.227"/>
					<path fill="#FFCB05" stroke="#000000" stroke-width="0.0382" d="M10.566,12.443c0.039,0.068,0.214,0.14,0.344,0.051
						c0.039-0.026,0.059-0.125,0.043-0.183"/>
					<path fill="#FFCB05" stroke="#000000" stroke-width="0.0382" d="M10.949,12.443c0.008,0.074,0.065,0.157,0.165,0.173
						c0.101,0.017,0.264-0.037,0.272-0.177"/>
					<path fill="#FFCB05" stroke="#000000" stroke-width="0.0382" d="M11.353,12.533c0.004,0.083,0.17,0.31,0.399,0.089"/>
					<path fill="none" stroke="#000000" stroke-width="0.0382" d="M10.482,12.494c-0.027,0.089-0.021,0.295,0.099,0.344
						c0.121,0.05,0.323-0.049,0.284-0.321"/>
					<path fill="#FFCB05" stroke="#000000" stroke-width="0.0382" d="M10.852,12.682c0.017,0.117,0.33,0.189,0.35-0.066"/>
					<path fill="#FFCB05" stroke="#000000" stroke-width="0.0382" d="M10.253,12.764c0.029,0.068,0.195,0.107,0.243-0.015"/>
					<path fill="#FFCB05" stroke="#000000" stroke-width="0.0382" d="M11.114,12.764c0.041,0.084,0.23,0.189,0.377-0.058"/>
					<path fill="#FFCB05" stroke="#000000" stroke-width="0.0382" d="M10.22,12.954c0.031,0.029,0.095,0.049,0.146,0.029"/>
					<path fill="#FFCB05" stroke="#000000" stroke-width="0.0382" d="M10.403,12.832c-0.043,0.06-0.07,0.229,0.006,0.289
						c0.081,0.062,0.233,0.076,0.307-0.093"/>
					<path fill="#FFCB05" stroke="#000000" stroke-width="0.0382" d="M10.708,12.849c-0.027,0.072-0.033,0.212,0.128,0.25
						c0.162,0.042,0.35-0.087,0.346-0.266"/>
					<path fill="#FFCB05" stroke="#000000" stroke-width="0.0382" d="M10.638,13.14c-0.029,0.065-0.029,0.25,0.165,0.325"/>
					<path fill="#FFCB05" stroke="#000000" stroke-width="0.0382" d="M10.51,13.333c0.056-0.012,0.109-0.078,0.095-0.185"/>
					<path fill="#FFCB05" stroke="#000000" stroke-width="0.0382" d="M11.361,12.838c0.051,0.073,0.162,0.206,0.297,0.145
						c0.131-0.062,0.156-0.233,0.037-0.305"/>
					<path fill="#FFCB05" stroke="#000000" stroke-width="0.0382" d="M11.038,13.077c0.037,0.07,0.204,0.132,0.303,0.115
						c0.099-0.017,0.155-0.156,0.134-0.232"/>
					<path fill="#FFCB05" stroke="#000000" stroke-width="0.0382" d="M11.032,13.39c0.053-0.041,0.104-0.165,0.099-0.237"/>
					<path fill="#FFCB05" stroke="#000000" stroke-width="0.0382" d="M11.418,13.464c0.05-0.062,0.077-0.161-0.026-0.289"/>
					<path fill="#FFCB05" stroke="#000000" stroke-width="0.0382" d="M11.927,12.986c-0.039,0.012-0.147,0.046-0.208-0.037"/>
					<path fill="#FFCB05" stroke="#000000" stroke-width="0.0382" d="M11.433,13.126c0.058,0.07,0.398,0.177,0.425-0.124"/>
					<path fill="#FFCB05" stroke="#000000" stroke-width="0.0382" d="M11.763,13.183c0.051,0.055,0.099,0.199,0.004,0.308"/>
					<path fill="#FFCB05" stroke="#000000" stroke-width="0.0382" d="M12.16,13.196c-0.01,0.074-0.115,0.245-0.342,0.087"/>
					<path fill="#FFCB05" stroke="#000000" stroke-width="0.0382" d="M12.72,13.485c0.019,0.058-0.014,0.111-0.043,0.14"/>
					<path fill="#FFCB05" stroke="#000000" stroke-width="0.0382" d="M12.444,13.365c0.056,0.037,0.099,0.188,0.011,0.243"/>
					<path fill="#FFCB05" stroke="#000000" stroke-width="0.0382" d="M12.355,13.353c-0.056,0.006-0.127,0.088-0.088,0.193"/>
					<path fill="#FFCB05" stroke="#000000" stroke-width="0.0382" d="M12.149,13.248c0.068,0.022,0.13,0.101,0.134,0.154"/>
					<path fill="#FFCB05" stroke="#000000" stroke-width="0.0382" d="M12.02,13.553c-0.027-0.049-0.047-0.163,0.015-0.212"/>
					<path fill="#00A651" stroke="#000000" stroke-width="0.0382" d="M12.149,7.601c-0.253,0.079-0.587,0.057-0.82-0.087
						c0.045-0.056,0.109-0.11,0.109-0.11c-0.21-0.034-0.397-0.167-0.451-0.289l0.109-0.044c-0.109-0.088-0.291-0.3-0.309-0.388H10.9
						c-0.136-0.111-0.225-0.333-0.203-0.565l0.066,0.067c-0.066-0.234-0.035-0.467,0-0.566c0,0,0.146,0.121,0.178,0.232
						c0-0.156,0.067-0.375,0.156-0.508l0.078,0.143c0.066-0.178,0.186-0.256,0.274-0.322c0.015,0.056,0.025,0.156,0.025,0.156
						c0.054-0.144,0.21-0.222,0.309-0.255c-0.011,0.099-0.064,0.31-0.099,0.367c0.124-0.046,0.156-0.014,0.212,0
						c-0.079,0.131-0.177,0.242-0.276,0.298c0.053,0.143,0.01,0.621-0.079,0.743c0.063,0.054,0.088,0.132,0.088,0.277
						c0.132,0.021,0.363,0.078,0.44,0.465C12.097,7.336,12.05,7.47,12.149,7.601z"/>
					<path fill="none" stroke="#000000" stroke-width="0.0382" d="M12.149,7.601c-0.177-0.154-0.278-0.265-0.71-0.197"/>
					<path fill="none" stroke="#000000" stroke-width="0.0382" d="M11.694,7.392c-0.074-0.166-0.23-0.354-0.597-0.321"/>
					<path fill="none" stroke="#000000" stroke-width="0.0382" d="M11.439,7.125c-0.086-0.232-0.284-0.432-0.539-0.443"/>
					<path fill="none" stroke="#000000" stroke-width="0.0382" d="M10.764,6.185c0.123,0.087,0.399,0.364,0.412,0.585"/>
					<path fill="none" stroke="#000000" stroke-width="0.0382" d="M10.988,6.394c0.01-0.188,0.175-0.554,0.352-0.655
						c-0.022-0.11,0.144-0.264,0.344-0.308"/>
					<path fill="none" stroke="#000000" stroke-width="0.0382" d="M11.175,5.485c-0.035,0.1-0.012,0.287,0.046,0.354"/>
					<path fill="none" stroke="#000000" stroke-width="0.0382" d="M10.941,5.851c-0.011,0.155,0.034,0.255,0.1,0.334"/>
					<path fill="none" stroke="#000000" stroke-width="0.0382" d="M11.186,6.727c0.111-0.011,0.288-0.144,0.356-0.254"/>
					<path fill="none" stroke="#000000" stroke-width="0.0382" d="M11.34,5.739c0.109,0.013,0.212,0.023,0.28-0.01
						c-0.015,0.143-0.136,0.311-0.268,0.432L11.308,6.05c-0.132,0.111-0.223,0.233-0.233,0.443"/>
					<line fill="none" stroke="#000000" stroke-width="0.0382" x1="11.052" y1="6.128" x2="11.13" y2="6.238"/>
					<path fill="none" stroke="#000000" stroke-width="0.0382" d="M11.353,6.162c0.043,0.122,0.022,0.388-0.023,0.499"/>
					<path fill="none" stroke="#000000" stroke-width="0.0382" d="M11.396,7.048c0.167-0.023,0.435-0.111,0.564,0.399"/>
					<path fill="none" stroke="#000000" stroke-width="0.0382" d="M11.264,6.704c0.132,0.023,0.278,0.134,0.309,0.322"/>
					<path fill="none" stroke="#000000" stroke-width="0.0382" d="M11.63,6.75c-0.01,0.078-0.058,0.132-0.088,0.165"/>
					<path fill="none" stroke="#000000" stroke-width="0.0382" d="M11.684,6.76c0.058,0.087,0.068,0.21,0.035,0.288"/>
					<path fill="#ED1C24" stroke="#000000" stroke-width="0.0382" d="M11.221,7.758c0.14,0.021,0.364,0.044,0.463-0.057
						c0.099-0.1,0.344-0.177,0.486-0.133c0.146,0.044,0.189,0.056,0.189,0.056l-0.033,0.178c-0.142-0.057-0.266-0.067-0.387,0.044
						c-0.122,0.109-0.421,0.22-0.742,0.121L11.221,7.758z"/>
					<g>
						<path fill="#ED1C24" stroke="#000000" stroke-width="0.0382" d="M12.14,7.676c0.14,0,0.249-0.147,0.249-0.329
							s-0.109-0.33-0.249-0.33c-0.141,0-0.252,0.148-0.252,0.33S11.999,7.676,12.14,7.676z"/>
						<path fill="#ED1C24" stroke="#000000" stroke-width="0.0382" d="M12.14,7.347"/>
					</g>
					<g>
						<ellipse fill="#FFFFFF" stroke="#000000" stroke-width="0.0382" cx="12.14" cy="7.346" rx="0.092" ry="0.157"/>
						<path fill="#FFFFFF" stroke="#000000" stroke-width="0.0382" d="M12.14,7.347"/>
					</g>
					<path fill="#ED1C24" stroke="#000000" stroke-width="0.0382" d="M13.571,7.758c-0.146,0.021-0.367,0.044-0.465-0.057
						c-0.104-0.1-0.349-0.177-0.491-0.133c-0.142,0.044-0.189,0.056-0.189,0.056l0.033,0.178c0.146-0.057,0.265-0.067,0.389,0.044
						c0.124,0.109,0.42,0.22,0.742,0.121L13.571,7.758z"/>
					<g>
						<ellipse fill="#ED1C24" stroke="#000000" stroke-width="0.0382" cx="12.648" cy="7.346" rx="0.251" ry="0.329"/>
						<path fill="#ED1C24" stroke="#000000" stroke-width="0.0382" d="M12.648,7.347"/>
					</g>
					<g>
						<ellipse fill="#FFFFFF" stroke="#000000" stroke-width="0.0382" cx="12.648" cy="7.346" rx="0.094" ry="0.157"/>
						<path fill="#FFFFFF" stroke="#000000" stroke-width="0.0382" d="M12.648,7.347"/>
					</g>
					<g>
						<circle fill="#ED1C24" stroke="#000000" stroke-width="0.0382" cx="12.393" cy="7.68" r="0.165"/>
						<path fill="#ED1C24" stroke="#000000" stroke-width="0.0382" d="M12.393,7.68"/>
					</g>
					<path fill="none" stroke="#000000" stroke-width="0.0382" d="M11.474,5.319c0.01,0.099,0,0.2,0,0.2"/>
				</g>
				<path fill="#00A651" stroke="#000000" stroke-width="0.0382" d="M8.232,7.607C8.266,7.882,8.22,8.26,8.15,8.444
					C8.083,8.628,7.922,9.443,8.504,9.489c0.587,0.045,0.577-0.495,0.601-0.676c0.021-0.185,0.124-0.656,0.375-0.782
					C9.345,8.021,9.048,8.008,8.908,8.146c-0.01-0.183-0.024-0.458-0.024-0.595C8.768,7.653,8.61,7.906,8.564,8.008
					C8.519,7.86,8.357,7.7,8.232,7.607z"/>
				<path fill="none" stroke="#000000" stroke-width="0.0382" d="M8.564,8.008C8.439,8.25,8.14,9.374,8.472,9.476
					C8.61,9.5,8.933,9.489,8.908,8.146"/>
				<path fill="#00A651" stroke="#000000" stroke-width="0.0382" d="M7.87,9.422c0.034,0.275-0.01,0.653-0.08,0.837
					c-0.07,0.183-0.229,0.998,0.354,1.044c0.587,0.045,0.574-0.493,0.596-0.678c0.025-0.183,0.127-0.652,0.381-0.779
					C8.984,9.834,8.682,9.823,8.546,9.96C8.534,9.777,8.523,9.502,8.523,9.366C8.408,9.468,8.25,9.72,8.204,9.823
					C8.154,9.674,7.996,9.513,7.87,9.422z"/>
				<path fill="none" stroke="#000000" stroke-width="0.0382" d="M8.204,9.823c-0.128,0.24-0.427,1.365-0.095,1.468
					c0.141,0.023,0.459,0.012,0.437-1.331"/>
				<path fill="#00A651" stroke="#000000" stroke-width="0.0382" d="M7.596,11.313c0.106,0.257,0.159,0.636,0.141,0.83
					c-0.022,0.193,0.035,1.023,0.612,0.917c0.577-0.107,0.426-0.625,0.401-0.81c-0.026-0.181-0.047-0.662,0.165-0.849
					c-0.138,0.023-0.428,0.089-0.525,0.258c-0.06-0.175-0.139-0.437-0.177-0.57c-0.084,0.128-0.173,0.416-0.191,0.527
					C7.94,11.483,7.741,11.369,7.596,11.313z"/>
				<path fill="none" stroke="#000000" stroke-width="0.0382" d="M8.021,11.615c-0.06,0.264-0.056,1.429,0.292,1.442
					c0.141-0.013,0.446-0.107,0.077-1.399"/>
				<path fill="#00A651" stroke="#000000" stroke-width="0.0382" d="M7.798,13.283c0.167,0.221,0.319,0.571,0.348,0.767
					c0.033,0.189,0.299,0.975,0.83,0.724c0.531-0.253,0.249-0.714,0.18-0.886c-0.072-0.169-0.219-0.63-0.064-0.865
					c-0.124,0.06-0.388,0.198-0.438,0.388c-0.104-0.153-0.248-0.388-0.317-0.507c-0.05,0.149-0.06,0.447-0.05,0.561
					C8.171,13.357,7.952,13.299,7.798,13.283z"/>
				<path fill="none" stroke="#000000" stroke-width="0.0382" d="M8.286,13.464c0.013,0.272,0.317,1.392,0.655,1.318
					c0.132-0.05,0.404-0.223-0.288-1.372"/>
				<path fill="#00A651" stroke="#000000" stroke-width="0.0382" d="M8.748,15.017c0.248,0.128,0.529,0.383,0.639,0.544
					c0.111,0.163,0.688,0.761,1.06,0.309c0.371-0.453-0.074-0.754-0.212-0.877s-0.463-0.478-0.422-0.757
					c-0.088,0.107-0.27,0.345-0.235,0.535c-0.159-0.095-0.39-0.243-0.502-0.321c0.018,0.152,0.133,0.428,0.191,0.527
					C9.119,14.927,8.894,14.966,8.748,15.017z"/>
				<path fill="none" stroke="#000000" stroke-width="0.0382" d="M9.267,14.976c0.128,0.238,0.877,1.128,1.151,0.917
					c0.097-0.101,0.272-0.369-0.84-1.123"/>
				<path fill="#00A651" stroke="#000000" stroke-width="0.0382" d="M9.781,16.17c0.244,0.135,1.137,0.309,1.481-0.07
					c0.069-0.239-0.06-0.894-0.597-1.214c-0.093,0.193,0,0.712,0.138,0.975C10.552,15.861,10.127,16.009,9.781,16.17z"/>
				<path fill="#00A651" stroke="#000000" stroke-width="0.0382" d="M16.555,7.607c-0.035,0.275,0.012,0.653,0.08,0.837
					c0.07,0.184,0.231,0.999-0.354,1.045c-0.585,0.045-0.575-0.495-0.597-0.676c-0.021-0.185-0.126-0.656-0.377-0.782
					c0.136-0.011,0.435-0.023,0.571,0.115c0.014-0.183,0.024-0.458,0.024-0.595c0.115,0.102,0.274,0.354,0.322,0.457
					C16.27,7.86,16.429,7.7,16.555,7.607z"/>
				<path fill="none" stroke="#000000" stroke-width="0.0382" d="M16.223,8.008c0.125,0.242,0.424,1.366,0.09,1.468
					c-0.138,0.024-0.457,0.013-0.437-1.33"/>
				<path fill="#00A651" stroke="#000000" stroke-width="0.0382" d="M16.919,9.422c-0.035,0.275,0.01,0.653,0.08,0.837
					c0.066,0.183,0.227,0.998-0.358,1.044c-0.583,0.045-0.572-0.493-0.593-0.678c-0.025-0.183-0.128-0.652-0.382-0.779
					c0.138-0.012,0.437-0.023,0.573,0.114c0.014-0.183,0.024-0.458,0.024-0.595c0.113,0.103,0.274,0.354,0.321,0.457
					C16.632,9.674,16.792,9.513,16.919,9.422z"/>
				<path fill="none" stroke="#000000" stroke-width="0.0382" d="M16.585,9.823c0.126,0.24,0.424,1.365,0.091,1.468
					c-0.138,0.023-0.457,0.012-0.436-1.331"/>
				<path fill="#00A651" stroke="#000000" stroke-width="0.0382" d="M17.193,11.313c-0.107,0.257-0.161,0.636-0.137,0.83
					c0.016,0.193-0.04,1.023-0.617,0.917c-0.579-0.107-0.426-0.625-0.404-0.81c0.027-0.181,0.049-0.662-0.16-0.849
					c0.134,0.023,0.424,0.089,0.524,0.258c0.056-0.175,0.139-0.437,0.175-0.57c0.085,0.128,0.175,0.416,0.189,0.527
					C16.849,11.483,17.044,11.369,17.193,11.313z"/>
				<path fill="none" stroke="#000000" stroke-width="0.0382" d="M16.764,11.615c0.061,0.264,0.059,1.429-0.29,1.442
					c-0.136-0.013-0.443-0.107-0.075-1.399"/>
				<path fill="#00A651" stroke="#000000" stroke-width="0.0382" d="M16.991,13.283c-0.168,0.221-0.32,0.571-0.35,0.767
					c-0.033,0.189-0.3,0.975-0.831,0.724c-0.529-0.253-0.251-0.714-0.179-0.886c0.074-0.169,0.218-0.63,0.064-0.865
					c0.122,0.06,0.385,0.198,0.438,0.388c0.102-0.153,0.25-0.388,0.319-0.507c0.048,0.149,0.059,0.447,0.048,0.561
					C16.614,13.357,16.834,13.299,16.991,13.283z"/>
				<path fill="none" stroke="#000000" stroke-width="0.0382" d="M16.501,13.464c-0.013,0.272-0.317,1.392-0.657,1.318
					c-0.129-0.05-0.401-0.223,0.291-1.372"/>
				<path fill="#00A651" stroke="#000000" stroke-width="0.0382" d="M16.04,15.017c-0.245,0.128-0.531,0.383-0.64,0.544
					c-0.112,0.163-0.686,0.761-1.059,0.309c-0.372-0.453,0.075-0.754,0.215-0.877c0.134-0.124,0.461-0.478,0.418-0.757
					c0.088,0.107,0.27,0.345,0.236,0.535c0.157-0.095,0.388-0.243,0.501-0.321c-0.017,0.152-0.132,0.428-0.189,0.527
					C15.671,14.927,15.891,14.966,16.04,15.017z"/>
				<path fill="none" stroke="#000000" stroke-width="0.0382" d="M15.521,14.976c-0.128,0.238-0.877,1.128-1.151,0.917
					c-0.097-0.101-0.272-0.369,0.84-1.123"/>
				<path fill="#00A651" stroke="#000000" stroke-width="0.0382" d="M15.006,16.17c-0.243,0.135-1.137,0.309-1.479-0.07
					c-0.07-0.239,0.056-0.894,0.593-1.214c0.094,0.193,0,0.712-0.137,0.975C14.236,15.861,14.66,16.009,15.006,16.17z"/>
				<path fill="#ED1C24" stroke="#000000" stroke-width="0.0382" d="M12.384,16.417l0.173,0.253h0.721l-0.502-0.344l0.421,0.07
					c0.159,0.008,0.229-0.058,0.229-0.301v-0.698c-0.01-0.208-0.161-0.16-0.251-0.114l-0.791,0.471l-0.791-0.471
					c-0.093-0.045-0.241-0.093-0.256,0.114v0.698c0,0.244,0.072,0.309,0.231,0.301l0.424-0.07l-0.504,0.344h0.723L12.384,16.417z"/>
				<polygon fill="#FFFFFF" stroke="#000000" stroke-width="0.0382" points="11.765,15.812 11.765,16.133 12.201,16.063 				"/>
				<polygon fill="#FFFFFF" stroke="#000000" stroke-width="0.0382" points="13.002,15.812 13.002,16.133 12.565,16.063 				"/>
			</g>
		</g>
	</g>
	<circle fill="none" stroke="#808285" stroke-width="0.4123" cx="12.19" cy="12.202" r="11.955"/>
</g>
</svg>
