<?xml version="1.0" encoding="utf-8"?>
<!-- Generator: Adobe Illustrator 16.0.0, SVG Export Plug-In . SVG Version: 6.00 Build 0)  -->
<!DOCTYPE svg PUBLIC "-//W3C//DTD SVG 1.1//EN" "http://www.w3.org/Graphics/SVG/1.1/DTD/svg11.dtd">
<svg version="1.1" id="Layer_1" xmlns="http://www.w3.org/2000/svg" xmlns:xlink="http://www.w3.org/1999/xlink" x="0px" y="0px"
	 width="20.781px" height="20.458px" viewBox="0 0 20.781 20.458" enable-background="new 0 0 20.781 20.458" xml:space="preserve">
<path fill="#58595B" d="M15.469,11.078l-3.117,3.119c-0.331,0.332-0.331,0.87,0.001,1.202c0.166,0.165,0.383,0.248,0.601,0.248
	s0.436-0.083,0.602-0.249l4.567-4.569c0.009-0.01,0.012-0.021,0.021-0.031c0.066-0.072,0.124-0.152,0.162-0.244
	c0.086-0.208,0.086-0.442,0-0.65c-0.043-0.104-0.106-0.199-0.186-0.277L13.554,5.06c-0.33-0.332-0.871-0.332-1.201,0
	c-0.332,0.331-0.332,0.87,0,1.201l3.116,3.117H3.261c-0.47,0-0.85,0.38-0.85,0.85s0.38,0.85,0.85,0.85H15.469z"/>
</svg>
