<?xml version="1.0" encoding="utf-8"?>
<!-- Generator: Adobe Illustrator 16.0.0, SVG Export Plug-In . SVG Version: 6.00 Build 0)  -->
<!DOCTYPE svg PUBLIC "-//W3C//DTD SVG 1.1//EN" "http://www.w3.org/Graphics/SVG/1.1/DTD/svg11.dtd">
<svg version="1.1" id="Layer_1" xmlns="http://www.w3.org/2000/svg" xmlns:xlink="http://www.w3.org/1999/xlink" x="0px" y="0px"
	 width="20.781px" height="20.458px" viewBox="0 0 20.781 20.458" enable-background="new 0 0 20.781 20.458" xml:space="preserve">
<path fill="#58595B" d="M12.6,14.444c-0.195,0.195-0.195,0.512,0,0.707c0.098,0.098,0.226,0.146,0.354,0.146
	s0.256-0.049,0.354-0.146l4.566-4.568c0.047-0.047,0.084-0.102,0.109-0.164c0.05-0.121,0.05-0.26,0-0.381
	c-0.025-0.062-0.062-0.117-0.109-0.164l-4.566-4.566c-0.195-0.195-0.512-0.195-0.707,0s-0.195,0.512,0,0.707l3.714,3.714H3.261
	c-0.276,0-0.5,0.224-0.5,0.5s0.224,0.5,0.5,0.5h13.053L12.6,14.444z"/>
</svg>
