<?xml version="1.0" encoding="utf-8"?>
<!-- Generator: Adobe Illustrator 16.0.0, SVG Export Plug-In . SVG Version: 6.00 Build 0)  -->
<!DOCTYPE svg PUBLIC "-//W3C//DTD SVG 1.1//EN" "http://www.w3.org/Graphics/SVG/1.1/DTD/svg11.dtd">
<svg version="1.1" id="Layer_1" xmlns="http://www.w3.org/2000/svg" xmlns:xlink="http://www.w3.org/1999/xlink" x="0px" y="0px"
	 width="23.667px" height="20.459px" viewBox="0 0 23.667 20.459" enable-background="new 0 0 23.667 20.459" xml:space="preserve">
<path fill="#58595B" d="M15.508,13.562c-0.593,0-1.129,0.237-1.524,0.619l-5.622-3.245c0.061-0.201,0.104-0.41,0.104-0.631
	s-0.042-0.43-0.104-0.631l5.582-3.223c0.399,0.404,0.952,0.656,1.564,0.656c1.211,0,2.197-0.983,2.197-2.196
	c0-1.214-0.985-2.197-2.197-2.197c-1.214,0-2.197,0.983-2.197,2.197c0,0.24,0.048,0.466,0.119,0.682L7.866,8.804
	C7.465,8.377,6.9,8.107,6.269,8.107c-1.214,0-2.197,0.983-2.197,2.197c0,1.213,0.983,2.196,2.197,2.196
	c0.631,0,1.196-0.27,1.597-0.697l5.58,3.221c-0.082,0.23-0.135,0.475-0.135,0.734c0,1.213,0.983,2.196,2.197,2.196
	c1.211,0,2.197-0.983,2.197-2.196C17.705,14.545,16.72,13.562,15.508,13.562z"/>
</svg>
