<?xml version="1.0" encoding="utf-8"?>
<!-- Generator: Adobe Illustrator 16.0.0, SVG Export Plug-In . SVG Version: 6.00 Build 0)  -->
<!DOCTYPE svg PUBLIC "-//W3C//DTD SVG 1.1//EN" "http://www.w3.org/Graphics/SVG/1.1/DTD/svg11.dtd">
<svg version="1.1" id="Layer_1" xmlns="http://www.w3.org/2000/svg" xmlns:xlink="http://www.w3.org/1999/xlink" x="0px" y="0px"
	 width="23.667px" height="20.459px" viewBox="0 0 23.667 20.459" enable-background="new 0 0 23.667 20.459" xml:space="preserve">
<path fill="#58595B" d="M15.717,13.353c-0.616,0-1.171,0.238-1.596,0.618l-5.498-3.173c0.033-0.159,0.052-0.324,0.052-0.493
	c0-0.169-0.018-0.334-0.052-0.493l5.604-3.235c0.411,0.327,0.924,0.53,1.49,0.53c1.327,0,2.405-1.077,2.405-2.405
	c0-1.329-1.079-2.406-2.405-2.406c-1.329,0-2.406,1.077-2.406,2.406c0,0.215,0.038,0.42,0.091,0.619L7.865,8.517
	c-0.426-0.38-0.981-0.618-1.596-0.618c-1.329,0-2.406,1.077-2.406,2.406c0,1.328,1.077,2.405,2.406,2.405
	c0.614,0,1.169-0.238,1.595-0.618l5.499,3.174c-0.033,0.16-0.052,0.324-0.052,0.494c0,1.328,1.077,2.405,2.406,2.405
	c1.327,0,2.405-1.077,2.405-2.405C18.122,14.43,17.043,13.353,15.717,13.353z"/>
</svg>
