<?xml version="1.0" encoding="utf-8"?>
<!-- Generator: Adobe Illustrator 16.0.0, SVG Export Plug-In . SVG Version: 6.00 Build 0)  -->
<!DOCTYPE svg PUBLIC "-//W3C//DTD SVG 1.1//EN" "http://www.w3.org/Graphics/SVG/1.1/DTD/svg11.dtd">
<svg version="1.1" id="Layer_1" xmlns="http://www.w3.org/2000/svg" xmlns:xlink="http://www.w3.org/1999/xlink" x="0px" y="0px"
	 width="20.781px" height="20.458px" viewBox="0 0 20.781 20.458" enable-background="new 0 0 20.781 20.458" xml:space="preserve">
<path fill="#58595B" d="M16.478,4.144c-0.195-0.195-0.512-0.195-0.707,0l-5.379,5.377L5.013,4.142c-0.195-0.195-0.512-0.195-0.707,0
	s-0.195,0.512,0,0.707l5.379,5.379l-5.381,5.381c-0.195,0.195-0.195,0.512,0,0.707c0.098,0.098,0.226,0.146,0.354,0.146
	s0.256-0.049,0.354-0.146l5.381-5.381l5.379,5.379c0.098,0.098,0.226,0.146,0.354,0.146s0.256-0.049,0.354-0.146
	c0.195-0.195,0.195-0.512,0-0.707l-5.379-5.379l5.379-5.377C16.673,4.656,16.673,4.339,16.478,4.144z"/>
</svg>
