<?xml version="1.0" encoding="utf-8"?>
<!-- Generator: Adobe Illustrator 16.0.0, SVG Export Plug-In . SVG Version: 6.00 Build 0)  -->
<!DOCTYPE svg PUBLIC "-//W3C//DTD SVG 1.1//EN" "http://www.w3.org/Graphics/SVG/1.1/DTD/svg11.dtd">
<svg version="1.1" id="Layer_1" xmlns="http://www.w3.org/2000/svg" xmlns:xlink="http://www.w3.org/1999/xlink" x="0px" y="0px"
	 width="20.781px" height="20.458px" viewBox="0 0 20.781 20.458" enable-background="new 0 0 20.781 20.458" xml:space="preserve">
<path fill="#58595B" d="M16.726,3.897c-0.332-0.332-0.87-0.331-1.202-0.001l-5.132,5.131L5.26,3.896
	c-0.33-0.332-0.871-0.332-1.201,0c-0.332,0.331-0.332,0.87,0,1.201l5.132,5.132l-5.134,5.133c-0.332,0.332-0.332,0.87-0.001,1.202
	c0.166,0.166,0.384,0.249,0.602,0.249s0.435-0.083,0.601-0.248l5.135-5.134l5.131,5.131c0.165,0.166,0.383,0.249,0.601,0.249
	s0.436-0.083,0.601-0.249c0.332-0.331,0.332-0.87,0-1.201l-5.131-5.131l5.131-5.13C17.057,4.768,17.057,4.229,16.726,3.897z"/>
</svg>
