<?xml version="1.0" encoding="utf-8"?>
<!-- Generator: Adobe Illustrator 16.0.0, SVG Export Plug-In . SVG Version: 6.00 Build 0)  -->
<!DOCTYPE svg PUBLIC "-//W3C//DTD SVG 1.1//EN" "http://www.w3.org/Graphics/SVG/1.1/DTD/svg11.dtd">
<svg version="1.1" id="Layer_1" xmlns="http://www.w3.org/2000/svg" xmlns:xlink="http://www.w3.org/1999/xlink" x="0px" y="0px"
	 width="125.833px" height="124.667px" viewBox="0 0 125.833 124.667" enable-background="new 0 0 125.833 124.667"
	 xml:space="preserve">
<g>
	<polygon fill="#616666" points="28.087,61.244 34.007,57.826 39.925,61.244 39.925,68.078 34.007,71.495 28.087,68.078 	"/>
	<polygon fill="#616666" points="63.669,16.784 66.64,15.07 69.608,16.784 69.608,20.216 66.64,21.93 63.669,20.216 	"/>
	<polygon fill="#616666" points="60.722,21.906 63.669,20.204 66.616,21.906 66.616,25.312 63.669,27.015 60.722,25.312 	"/>
	<polygon fill="#616666" points="57.763,30.388 69.606,23.549 81.446,30.388 81.446,44.062 69.606,50.897 57.763,44.062 	"/>
	<polygon fill="#8A8E8E" points="40.187,98.346 52.03,91.508 63.872,98.346 63.872,112.021 52.03,118.859 40.187,112.021 	"/>
	<polygon fill="#8A8E8E" points="34.005,44.076 45.892,37.213 57.776,44.076 57.776,57.799 45.892,64.66 34.005,57.799 	"/>
	<polygon fill="#3A3F3F" points="63.692,6.508 69.608,3.092 75.528,6.508 75.528,13.343 69.608,16.761 63.692,13.343 	"/>
	<polygon fill="#3A3F3F" points="69.608,16.694 75.528,13.277 81.446,16.694 81.446,23.528 75.528,26.946 69.608,23.528 	"/>
	<polygon fill="#3A3F3F" points="75.624,47.509 81.448,44.146 87.271,47.509 87.271,54.233 81.448,57.597 75.624,54.233 	"/>
	<polygon fill="#B8B9B9" points="53.685,60.203 69.8,50.897 85.911,60.203 85.911,78.812 69.8,88.115 53.685,78.812 	"/>
	<polygon fill="#616666" points="49.347,34.355 53.554,31.927 57.763,34.355 57.763,39.215 53.554,41.643 49.347,39.215 	"/>
	<polygon fill="#3A3F3F" points="85.911,60.269 91.831,56.851 97.747,60.269 97.747,67.102 91.831,70.519 85.911,67.102 	"/>
	<polygon fill="#8A8E8E" points="42.921,80.045 45.892,78.329 48.86,80.045 48.86,83.474 45.892,85.189 42.921,83.474 	"/>
	<polygon fill="#8A8E8E" points="39.972,85.167 42.921,83.465 45.868,85.167 45.868,88.57 42.921,90.272 39.972,88.57 	"/>
	<polygon fill="#616666" points="39.972,68.078 45.892,64.66 51.81,68.078 51.81,74.911 45.892,78.329 39.972,74.911 	"/>
	<polygon fill="#3A3F3F" points="57.968,88.11 63.888,84.693 69.806,88.11 69.806,94.945 63.888,98.361 57.968,94.945 	"/>
	<polygon fill="#B8B9B9" points="35.979,114.42 40.187,111.99 44.392,114.42 44.392,119.28 40.187,121.707 35.979,119.28 	"/>
</g>
</svg>
