<?xml version="1.0" encoding="utf-8"?>
<!-- Generator: Adobe Illustrator 16.0.0, SVG Export Plug-In . SVG Version: 6.00 Build 0)  -->
<!DOCTYPE svg PUBLIC "-//W3C//DTD SVG 1.1//EN" "http://www.w3.org/Graphics/SVG/1.1/DTD/svg11.dtd">
<svg version="1.1" id="Layer_1" xmlns="http://www.w3.org/2000/svg" xmlns:xlink="http://www.w3.org/1999/xlink" x="0px" y="0px"
	 width="20.781px" height="20.458px" viewBox="0 0 20.781 20.458" enable-background="new 0 0 20.781 20.458" xml:space="preserve">
<path fill="#58595B" d="M19.771,5.801H10.89V1.433c0-0.276-0.224-0.5-0.5-0.5s-0.5,0.224-0.5,0.5v4.368H9.133L6.99,3.66
	C6.896,3.566,6.77,3.513,6.637,3.513H1.01c-0.276,0-0.5,0.224-0.5,0.5v15.012c0,0.276,0.224,0.5,0.5,0.5h18.762
	c0.276,0,0.5-0.224,0.5-0.5V6.301C20.271,6.025,20.048,5.801,19.771,5.801z M19.271,18.525H1.51V4.513h4.92l2.143,2.142
	c0.094,0.094,0.221,0.146,0.354,0.146H9.89v7.685l-3.716-3.714c-0.195-0.195-0.512-0.195-0.707,0s-0.195,0.512,0,0.707l4.568,4.567
	c0.047,0.046,0.102,0.082,0.164,0.107c0.061,0.025,0.125,0.039,0.19,0.039s0.13-0.014,0.19-0.039
	c0.062-0.025,0.117-0.062,0.164-0.107l4.566-4.567c0.195-0.195,0.195-0.512,0-0.707s-0.512-0.195-0.707,0l-3.714,3.714V6.801h8.382
	V18.525z"/>
</svg>
