<?xml version="1.0" encoding="utf-8"?>
<!-- Generator: Adobe Illustrator 16.0.0, SVG Export Plug-In . SVG Version: 6.00 Build 0)  -->
<!DOCTYPE svg PUBLIC "-//W3C//DTD SVG 1.1//EN" "http://www.w3.org/Graphics/SVG/1.1/DTD/svg11.dtd">
<svg version="1.1" id="Layer_1" xmlns="http://www.w3.org/2000/svg" xmlns:xlink="http://www.w3.org/1999/xlink" x="0px" y="0px"
	 width="20.781px" height="20.458px" viewBox="0 0 20.781 20.458" enable-background="new 0 0 20.781 20.458" xml:space="preserve">
<path fill="#58595B" d="M19.771,5.754h-8.532V1.735c0-0.47-0.38-0.85-0.85-0.85s-0.85,0.38-0.85,0.85v4.019H9.277l-2.04-2.04
	C7.078,3.555,6.862,3.466,6.637,3.466H1.01c-0.47,0-0.85,0.38-0.85,0.85v15.012c0,0.47,0.38,0.85,0.85,0.85h18.762
	c0.47,0,0.85-0.38,0.85-0.85V6.604C20.621,6.134,20.241,5.754,19.771,5.754z M18.922,18.478H1.859V5.165h4.426l2.04,2.04
	C8.484,7.364,8.7,7.453,8.926,7.453H9.54v6.491l-3.119-3.118c-0.332-0.33-0.87-0.331-1.202,0.001
	c-0.331,0.332-0.331,0.87,0.001,1.202l4.569,4.567c0.009,0.009,0.021,0.012,0.03,0.02c0.072,0.066,0.153,0.125,0.245,0.163
	c0.104,0.043,0.215,0.065,0.325,0.065s0.221-0.022,0.325-0.065c0.104-0.044,0.198-0.106,0.277-0.186l4.565-4.565
	c0.332-0.331,0.332-0.87,0-1.201c-0.33-0.332-0.871-0.332-1.201,0l-3.117,3.116v-6.49h7.683V18.478z"/>
</svg>
