<?xml version="1.0" encoding="utf-8"?>
<!-- Generator: Adobe Illustrator 16.0.0, SVG Export Plug-In . SVG Version: 6.00 Build 0)  -->
<!DOCTYPE svg PUBLIC "-//W3C//DTD SVG 1.1//EN" "http://www.w3.org/Graphics/SVG/1.1/DTD/svg11.dtd">
<svg version="1.1" id="Layer_1" xmlns="http://www.w3.org/2000/svg" xmlns:xlink="http://www.w3.org/1999/xlink" x="0px" y="0px"
	 width="20.781px" height="20.458px" viewBox="0 0 20.781 20.458" enable-background="new 0 0 20.781 20.458" xml:space="preserve">
<g>
	<path fill="#58595B" d="M9.935,8.877c-0.276,0-0.5,0.224-0.5,0.5v6.481c0,0.276,0.224,0.5,0.5,0.5s0.5-0.224,0.5-0.5V9.377
		C10.435,9.101,10.211,8.877,9.935,8.877z"/>
	<path fill="#58595B" d="M9.848,2.225c-4.522,0-8.201,3.679-8.201,8.2s3.679,8.2,8.201,8.2c4.521,0,8.2-3.679,8.2-8.2
		S14.369,2.225,9.848,2.225z M9.848,17.625c-3.971,0-7.201-3.229-7.201-7.2c0-3.97,3.23-7.2,7.201-7.2c3.97,0,7.2,3.23,7.2,7.2
		C17.047,14.396,13.817,17.625,9.848,17.625z"/>
	<path fill="#58595B" d="M9.935,5.072c-0.276,0-0.5,0.224-0.5,0.5v1.342c0,0.276,0.224,0.5,0.5,0.5s0.5-0.224,0.5-0.5V5.572
		C10.435,5.296,10.211,5.072,9.935,5.072z"/>
</g>
</svg>
