<?xml version="1.0" encoding="utf-8"?>
<!-- Generator: Adobe Illustrator 16.0.0, SVG Export Plug-In . SVG Version: 6.00 Build 0)  -->
<!DOCTYPE svg PUBLIC "-//W3C//DTD SVG 1.1//EN" "http://www.w3.org/Graphics/SVG/1.1/DTD/svg11.dtd">
<svg version="1.1" id="Layer_1" xmlns="http://www.w3.org/2000/svg" xmlns:xlink="http://www.w3.org/1999/xlink" x="0px" y="0px"
	 width="20.781px" height="20.458px" viewBox="0 0 20.781 20.458" enable-background="new 0 0 20.781 20.458" xml:space="preserve">
<g>
	<path fill="#58595B" d="M10.478,8.626c-0.414,0-0.75,0.336-0.75,0.75v6.481c0,0.414,0.336,0.75,0.75,0.75s0.75-0.336,0.75-0.75
		V9.376C11.228,8.962,10.892,8.626,10.478,8.626z"/>
	<path fill="#58595B" d="M10.391,1.974c-4.66,0-8.451,3.791-8.451,8.45c0,4.66,3.791,8.45,8.451,8.45c4.659,0,8.45-3.79,8.45-8.45
		C18.841,5.765,15.05,1.974,10.391,1.974z M10.391,17.375c-3.833,0-6.951-3.117-6.951-6.95c0-3.832,3.118-6.95,6.951-6.95
		c3.832,0,6.95,3.118,6.95,6.95C17.341,14.257,14.223,17.375,10.391,17.375z"/>
	<path fill="#58595B" d="M10.478,4.822c-0.414,0-0.75,0.336-0.75,0.75v1.342c0,0.414,0.336,0.75,0.75,0.75s0.75-0.336,0.75-0.75
		V5.572C11.228,5.158,10.892,4.822,10.478,4.822z"/>
</g>
</svg>
