<?xml version="1.0" encoding="utf-8"?>
<!-- Generator: Adobe Illustrator 16.0.0, SVG Export Plug-In . SVG Version: 6.00 Build 0)  -->
<!DOCTYPE svg PUBLIC "-//W3C//DTD SVG 1.1//EN" "http://www.w3.org/Graphics/SVG/1.1/DTD/svg11.dtd">
<svg version="1.1" id="Layer_1" xmlns="http://www.w3.org/2000/svg" xmlns:xlink="http://www.w3.org/1999/xlink" x="0px" y="0px"
	 width="23.667px" height="20.459px" viewBox="0 0 23.667 20.459" enable-background="new 0 0 23.667 20.459" xml:space="preserve">
<g>
	<path fill="#58595B" d="M22.933,12.531l-8.119-4.69c0.501-1.226,0.881-2.427,0.881-3.266c0-2.084-1.695-3.78-3.779-3.78
		c-2.084,0-3.781,1.696-3.781,3.78c0,0.832,0.373,2.019,0.868,3.232L0.897,12.49c-0.155,0.089-0.25,0.254-0.25,0.433
		s0.095,0.344,0.25,0.433l10.799,6.24c0.077,0.044,0.164,0.067,0.25,0.067s0.173-0.022,0.25-0.067l10.737-6.199
		c0.155-0.089,0.25-0.254,0.25-0.433S23.087,12.621,22.933,12.531z M11.916,1.795c1.533,0,2.779,1.247,2.779,2.78
		c0,1.564-1.733,5.044-2.779,6.948C10.869,9.62,9.135,6.141,9.135,4.575C9.135,3.042,10.382,1.795,11.916,1.795z M11.946,18.585
		l-9.799-5.662l7.251-4.189c0.917,2.041,2.007,3.922,2.086,4.057c0.089,0.154,0.254,0.248,0.432,0.248s0.342-0.094,0.432-0.248
		c0.078-0.134,1.157-1.996,2.07-4.024l7.265,4.197L11.946,18.585z"/>
	<circle fill="#58595B" cx="11.914" cy="4.575" r="1.203"/>
</g>
</svg>
