<?xml version="1.0" encoding="utf-8"?>
<!-- Generator: Adobe Illustrator 16.0.0, SVG Export Plug-In . SVG Version: 6.00 Build 0)  -->
<!DOCTYPE svg PUBLIC "-//W3C//DTD SVG 1.1//EN" "http://www.w3.org/Graphics/SVG/1.1/DTD/svg11.dtd">
<svg version="1.1" id="Layer_1" xmlns="http://www.w3.org/2000/svg" xmlns:xlink="http://www.w3.org/1999/xlink" x="0px" y="0px"
	 width="23.667px" height="20.459px" viewBox="0 0 23.667 20.459" enable-background="new 0 0 23.667 20.459" xml:space="preserve">
<g>
	<path fill="#58595B" d="M23.058,12.315L15.13,7.736c0.469-1.181,0.814-2.329,0.814-3.161c0-2.222-1.808-4.03-4.029-4.03
		c-2.223,0-4.031,1.808-4.031,4.03c0,0.824,0.339,1.958,0.801,3.127l-7.914,4.572c-0.232,0.134-0.375,0.381-0.375,0.649
		s0.143,0.515,0.375,0.649l10.799,6.24c0.116,0.067,0.246,0.101,0.375,0.101s0.259-0.034,0.375-0.101l10.737-6.199
		c0.232-0.134,0.375-0.381,0.375-0.649C23.433,12.697,23.29,12.449,23.058,12.315z M11.916,2.045c1.395,0,2.529,1.135,2.529,2.53
		c0,1.413-1.489,4.49-2.53,6.425c-1.041-1.935-2.53-5.011-2.53-6.425C9.385,3.18,10.52,2.045,11.916,2.045z M11.946,18.297
		l-9.3-5.374l6.635-3.833c0.848,1.851,1.802,3.509,1.987,3.827c0.135,0.23,0.381,0.372,0.648,0.372s0.514-0.142,0.648-0.372
		c0.184-0.315,1.127-1.957,1.971-3.794l6.648,3.841L11.946,18.297z"/>
	<circle fill="#58595B" cx="11.914" cy="4.575" r="1.39"/>
</g>
</svg>
