<?xml version="1.0" encoding="utf-8"?>
<!-- Generator: Adobe Illustrator 16.0.0, SVG Export Plug-In . SVG Version: 6.00 Build 0)  -->
<!DOCTYPE svg PUBLIC "-//W3C//DTD SVG 1.1//EN" "http://www.w3.org/Graphics/SVG/1.1/DTD/svg11.dtd">
<svg version="1.1" id="Layer_1" xmlns="http://www.w3.org/2000/svg" xmlns:xlink="http://www.w3.org/1999/xlink" x="0px" y="0px"
	 width="20.781px" height="20.459px" viewBox="0 0 20.781 20.459" enable-background="new 0 0 20.781 20.459" xml:space="preserve">
<g>
	<path fill="#58595B" d="M18.496,17.845c-0.065,0-0.13-0.008-0.194-0.025l-4.596-1.231c-1.06,0.322-2.174,0.485-3.315,0.485
		c-5.062,0-9.181-3.244-9.181-7.23s4.119-7.23,9.181-7.23s9.181,3.243,9.181,7.23c0,1.29-0.435,2.546-1.262,3.657l0.911,3.401
		c0.069,0.259-0.005,0.535-0.194,0.724C18.883,17.768,18.692,17.845,18.496,17.845z M13.689,15.058c0.065,0,0.13,0.008,0.194,0.025
		l3.552,0.952l-0.672-2.509c-0.063-0.235-0.008-0.487,0.148-0.674c0.759-0.911,1.16-1.951,1.16-3.008c0-3.16-3.445-5.73-7.681-5.73
		S2.71,6.684,2.71,9.844s3.445,5.73,7.681,5.73c1.061,0,2.092-0.161,3.065-0.479C13.532,15.07,13.61,15.058,13.689,15.058z"/>
</g>
</svg>
