<?xml version="1.0" encoding="utf-8"?>
<!-- Generator: Adobe Illustrator 16.0.0, SVG Export Plug-In . SVG Version: 6.00 Build 0)  -->
<!DOCTYPE svg PUBLIC "-//W3C//DTD SVG 1.1//EN" "http://www.w3.org/Graphics/SVG/1.1/DTD/svg11.dtd">
<svg version="1.1" id="Layer_1" xmlns="http://www.w3.org/2000/svg" xmlns:xlink="http://www.w3.org/1999/xlink" x="0px" y="0px"
	 width="20.781px" height="20.459px" viewBox="0 0 20.781 20.459" enable-background="new 0 0 20.781 20.459" xml:space="preserve">
<g>
	<path fill="#58595B" d="M18.496,17.595c-0.043,0-0.086-0.005-0.129-0.017l-4.665-1.25c-1.056,0.329-2.169,0.496-3.31,0.496
		c-4.924,0-8.931-3.131-8.931-6.98c0-3.849,4.006-6.98,8.931-6.98s8.931,3.131,8.931,6.98c0,1.272-0.443,2.513-1.286,3.603
		l0.942,3.519c0.046,0.172-0.003,0.356-0.129,0.483C18.754,17.544,18.626,17.595,18.496,17.595z M13.689,15.308
		c0.043,0,0.087,0.006,0.129,0.017l3.97,1.063l-0.784-2.927c-0.042-0.157-0.005-0.325,0.099-0.45
		c0.797-0.956,1.218-2.051,1.218-3.167c0-3.297-3.558-5.98-7.931-5.98S2.46,6.546,2.46,9.844c0,3.298,3.558,5.98,7.931,5.98
		c1.087,0,2.144-0.166,3.143-0.492C13.584,15.316,13.636,15.308,13.689,15.308z"/>
</g>
</svg>
