<?xml version="1.0" encoding="utf-8"?>
<!-- Generator: Adobe Illustrator 16.0.0, SVG Export Plug-In . SVG Version: 6.00 Build 0)  -->
<!DOCTYPE svg PUBLIC "-//W3C//DTD SVG 1.1//EN" "http://www.w3.org/Graphics/SVG/1.1/DTD/svg11.dtd">
<svg version="1.1" id="Layer_1" xmlns="http://www.w3.org/2000/svg" xmlns:xlink="http://www.w3.org/1999/xlink" x="0px" y="0px"
	 width="20.781px" height="20.459px" viewBox="0 0 20.781 20.459" enable-background="new 0 0 20.781 20.459" xml:space="preserve">
<g>
	<path fill="#58595B" d="M10.363,14.413c-0.414,0-0.75-0.336-0.75-0.75v-1.818c0-1.428,0.931-2.151,1.68-2.733
		c0.811-0.63,1.452-1.128,1.452-2.426c0-1.312-1.068-2.381-2.381-2.381c-1.06,0-2.002,0.712-2.291,1.73
		C7.958,6.434,7.543,6.661,7.146,6.553c-0.398-0.113-0.63-0.528-0.517-0.927C7.1,3.965,8.635,2.805,10.363,2.805
		c2.14,0,3.881,1.741,3.881,3.881c0,2.031-1.174,2.944-2.031,3.61c-0.723,0.562-1.1,0.886-1.1,1.549v1.818
		C11.113,14.077,10.777,14.413,10.363,14.413z"/>
</g>
<g>
	<circle fill="#58595B" cx="10.422" cy="17.187" r="0.914"/>
</g>
</svg>
