<?xml version="1.0" encoding="utf-8"?>
<!-- Generator: Adobe Illustrator 16.0.0, SVG Export Plug-In . SVG Version: 6.00 Build 0)  -->
<!DOCTYPE svg PUBLIC "-//W3C//DTD SVG 1.1//EN" "http://www.w3.org/Graphics/SVG/1.1/DTD/svg11.dtd">
<svg version="1.1" id="Layer_1" xmlns="http://www.w3.org/2000/svg" xmlns:xlink="http://www.w3.org/1999/xlink" x="0px" y="0px"
	 width="20.781px" height="20.459px" viewBox="0 0 20.781 20.459" enable-background="new 0 0 20.781 20.459" xml:space="preserve">
<g>
	<path fill="#58595B" d="M10.096,14.017c-0.276,0-0.5-0.224-0.5-0.5v-1.724c0-1.251,0.803-1.875,1.511-2.426
		c0.783-0.608,1.458-1.134,1.458-2.468c0-1.361-1.108-2.47-2.47-2.47c-1.1,0-2.077,0.738-2.377,1.796
		C7.644,6.49,7.365,6.646,7.102,6.569c-0.266-0.075-0.42-0.352-0.344-0.617C7.179,4.467,8.552,3.43,10.096,3.43
		c1.913,0,3.47,1.557,3.47,3.47c0,1.823-1.023,2.618-1.845,3.257c-0.718,0.559-1.125,0.91-1.125,1.637v1.724
		C10.596,13.793,10.373,14.017,10.096,14.017z"/>
</g>
<g>
	<circle fill="#58595B" cx="10.153" cy="16.859" r="0.789"/>
</g>
</svg>
