<?xml version="1.0" encoding="UTF-8" standalone="no"?>
<svg
   xmlns:dc="http://purl.org/dc/elements/1.1/"
   xmlns:cc="http://creativecommons.org/ns#"
   xmlns:rdf="http://www.w3.org/1999/02/22-rdf-syntax-ns#"
   xmlns:svg="http://www.w3.org/2000/svg"
   xmlns="http://www.w3.org/2000/svg"
   id="svg67"
   version="1.1"
   viewBox="0 0 16.233263 160"
   height="160"
   width="16.233263">
  <defs
     id="defs61" />
  <metadata
     id="metadata64">
    <rdf:RDF>
      <cc:Work
         rdf:about="">
        <dc:format>image/svg+xml</dc:format>
        <dc:type
           rdf:resource="http://purl.org/dc/dcmitype/StillImage" />
        <dc:title></dc:title>
      </cc:Work>
    </rdf:RDF>
  </metadata>
  <g
     transform="translate(-55.959375,-26.107262)"
     id="layer1">
    <g
       id="g20148"
       transform="matrix(0.9364444,0,0,0.9364444,54.12488,24.442264)">
      <path
         style="fill:#58595b"
         d="m 11.64,12.297 c 0.721,-0.92 1.154,-2.075 1.154,-3.332 0,-2.987 -2.43,-5.418 -5.417,-5.418 -2.987,0 -5.418,2.431 -5.418,5.418 0,2.987 2.43,5.418 5.417,5.418 1.371,0 2.621,-0.516 3.576,-1.358 l 5.93,5.873 c 0.098,0.096 0.225,0.145 0.352,0.145 0.129,0 0.257,-0.05 0.355,-0.148 0.194,-0.196 0.192,-0.513 -0.003,-0.707 z M 2.959,8.965 c 0,-2.436 1.981,-4.418 4.417,-4.418 2.436,0 4.417,1.982 4.417,4.418 0,2.437 -1.981,4.418 -4.417,4.418 -2.436,0 -4.417,-1.982 -4.417,-4.418 z"
         id="path20144" />
      <path
         style="fill:#58595b"
         d="M 18.794,4.261 H 16.812 V 2.278 c 0,-0.276 -0.224,-0.5 -0.5,-0.5 -0.276,0 -0.5,0.224 -0.5,0.5 V 4.26 H 13.83 c -0.276,0 -0.5,0.224 -0.5,0.5 0,0.276 0.224,0.5 0.5,0.5 h 1.982 v 1.98 c 0,0.276 0.224,0.5 0.5,0.5 0.276,0 0.5,-0.224 0.5,-0.5 V 5.26 h 1.982 c 0.276,0 0.5,-0.224 0.5,-0.5 0,-0.276 -0.223,-0.499 -0.5,-0.499 z"
         id="path20146" />
    </g>
    <path
       style="fill:none;stroke:#58595b;stroke-width:0.93644434px;stroke-linecap:butt;stroke-linejoin:miter;stroke-opacity:1"
       d="M 64.076009,186.01636 V 50.745276"
       id="path15959"
       class="linea" />
    <circle
       style="opacity:1;fill:#58595b;fill-opacity:1;stroke:none;stroke-width:4.24718189;stroke-linecap:round;stroke-miterlimit:4;stroke-dasharray:none;stroke-dashoffset:0;stroke-opacity:1;paint-order:stroke fill markers"
       id="path20968"
       cx="64.076004"
       cy="180.4886"
       r="5.6186662"
       class="circulo" />
  </g>
</svg>
