<?xml version="1.0" encoding="utf-8"?>
<!-- Generator: Adobe Illustrator 16.0.0, SVG Export Plug-In . SVG Version: 6.00 Build 0)  -->
<!DOCTYPE svg PUBLIC "-//W3C//DTD SVG 1.1//EN" "http://www.w3.org/Graphics/SVG/1.1/DTD/svg11.dtd">
<svg version="1.1" id="Layer_1" xmlns="http://www.w3.org/2000/svg" xmlns:xlink="http://www.w3.org/1999/xlink" x="0px" y="0px"
	 width="20.781px" height="20.458px" viewBox="0 0 20.781 20.458" enable-background="new 0 0 20.781 20.458" xml:space="preserve">
<g>
	<g>
		<path fill="#58595B" d="M11.64,12.297c0.721-0.92,1.154-2.075,1.154-3.332c0-2.987-2.43-5.418-5.417-5.418
			S1.959,5.978,1.959,8.965s2.43,5.418,5.417,5.418c1.371,0,2.621-0.516,3.576-1.358l5.93,5.873
			c0.098,0.096,0.225,0.145,0.352,0.145c0.129,0,0.257-0.05,0.355-0.148c0.194-0.196,0.192-0.513-0.003-0.707L11.64,12.297z
			 M2.959,8.965c0-2.436,1.981-4.418,4.417-4.418s4.417,1.982,4.417,4.418c0,2.437-1.981,4.418-4.417,4.418
			S2.959,11.401,2.959,8.965z"/>
		<path fill="#58595B" d="M18.794,4.261h-1.982V2.278c0-0.276-0.224-0.5-0.5-0.5s-0.5,0.224-0.5,0.5v1.982h-1.982
			c-0.276,0-0.5,0.224-0.5,0.5s0.224,0.5,0.5,0.5h1.982v1.98c0,0.276,0.224,0.5,0.5,0.5s0.5-0.224,0.5-0.5v-1.98h1.982
			c0.276,0,0.5-0.224,0.5-0.5S19.071,4.261,18.794,4.261z"/>
	</g>
</g>
</svg>
