<?xml version="1.0" encoding="utf-8"?>
<!-- Generator: Adobe Illustrator 16.0.0, SVG Export Plug-In . SVG Version: 6.00 Build 0)  -->
<!DOCTYPE svg PUBLIC "-//W3C//DTD SVG 1.1//EN" "http://www.w3.org/Graphics/SVG/1.1/DTD/svg11.dtd">
<svg version="1.1" id="Layer_1" xmlns="http://www.w3.org/2000/svg" xmlns:xlink="http://www.w3.org/1999/xlink" x="0px" y="0px"
	 width="20.781px" height="20.458px" viewBox="0 0 20.781 20.458" enable-background="new 0 0 20.781 20.458" xml:space="preserve">
<g>
	<path fill="#58595B" d="M11.97,12.272c0.673-0.932,1.074-2.072,1.074-3.308c0-3.125-2.542-5.668-5.667-5.668
		S1.709,5.84,1.709,8.965c0,3.126,2.542,5.668,5.667,5.668c1.351,0,2.591-0.476,3.565-1.268l5.764,5.709
		c0.146,0.146,0.337,0.218,0.528,0.218c0.193,0,0.386-0.074,0.533-0.223c0.292-0.294,0.29-0.769-0.005-1.061L11.97,12.272z
		 M3.209,8.965c0-2.298,1.87-4.168,4.167-4.168s4.167,1.87,4.167,4.168c0,2.299-1.87,4.168-4.167,4.168S3.209,11.264,3.209,8.965z"
		/>
	<path fill="#58595B" d="M18.794,4.011h-1.732V2.278c0-0.414-0.336-0.75-0.75-0.75s-0.75,0.336-0.75,0.75v1.732h-1.732
		c-0.414,0-0.75,0.336-0.75,0.75s0.336,0.75,0.75,0.75h1.732v1.73c0,0.414,0.336,0.75,0.75,0.75s0.75-0.336,0.75-0.75v-1.73h1.732
		c0.414,0,0.75-0.336,0.75-0.75S19.208,4.011,18.794,4.011z"/>
</g>
</svg>
